<svg width="47" height="47" viewBox="0 0 47 47" fill="none" xmlns="http://www.w3.org/2000/svg">
  <circle cx="23.5" cy="23.5" r="21.5" fill="white" stroke="#FF5570" stroke-width="2"/>
  <path d="M34 18.1538H27.8462V23.4462C27.8462 23.4462 27.8462 23.4462 27.8462 23.5385C27.8508 24.9378 28.7989 26.1578 30.1538 26.5077V32H29.3846C28.9598 32 28.6154 32.3445 28.6154 32.7692C28.6154 33.194 28.9598 33.5385 29.3846 33.5385H32.4615C32.8863 33.5385 33.2308 33.194 33.2308 32.7692C33.2308 32.3445 32.8863 32 32.4615 32H31.6923V26.5077C33.0472 26.1578 33.9954 24.9378 34 23.5385C34 23.5385 34 23.5385 34 23.4462V18.1538ZM32.4615 23.5385C32.4615 24.3882 31.7728 25.0769 30.9231 25.0769C30.0734 25.0769 29.3846 24.3882 29.3846 23.5385V19.6923H32.4615V23.5385ZM20.9231 15.8462V15.0769C21.3478 15.0769 21.6923 14.7325 21.6923 14.3077C21.6923 13.8829 21.3478 13.5385 20.9231 13.5385V12.7692C20.9231 12.3445 20.5786 12 20.1538 12H18.6154C18.1906 12 17.8462 12.3445 17.8462 12.7692V13.5385C17.4214 13.5385 17.0769 13.8829 17.0769 14.3077C17.0769 14.7325 17.4214 15.0769 17.8462 15.0769V15.8462C17.8462 18.0462 14 20.5692 14 22.7692V32C14 32.8497 14.6888 33.5385 15.5385 33.5385H23.2308C24.0489 33.4669 24.6977 32.8182 24.7692 32V22.7692C24.7692 20.6923 20.9231 17.9231 20.9231 15.8462ZM19.3846 30.4615C17.2605 30.4615 15.5385 28.7395 15.5385 26.6154C15.5385 24.4912 17.2605 22.7692 19.3846 22.7692C21.5088 22.7692 23.2308 24.4912 23.2308 26.6154C23.2308 28.7395 21.5088 30.4615 19.3846 30.4615Z" fill="#FF5570"/>
</svg>
