<svg width="47" height="47" viewBox="0 0 47 47" fill="none" xmlns="http://www.w3.org/2000/svg">
  <circle cx="23.5" cy="23.5" r="21.5" fill="white" stroke="#FF5570" stroke-width="2"/>
  <path d="M33 18.6H29.4V15H15V22.2C15.0239 26.1764 18.2668 29.3804 22.2432 29.3564C24.7821 29.3411 27.1252 27.9899 28.41 25.8H33C34.9883 25.8 36.6 24.1883 36.6 22.2C36.6 20.2117 34.9883 18.6 33 18.6ZM33 24H29.148C29.3077 23.413 29.3924 22.8082 29.4 22.2V20.4H33C33.9941 20.4 34.8 21.2059 34.8 22.2C34.8 23.1941 33.9941 24 33 24ZM29.4 32.1C29.4 32.597 28.997 33 28.5 33H15.9C15.403 33 15 32.597 15 32.1C15 31.603 15.403 31.2 15.9 31.2H28.5C28.997 31.2 29.4 31.603 29.4 32.1Z" fill="#FF5570"/>
</svg>
