<svg width="45" height="45" viewBox="0 0 45 45" fill="none" xmlns="http://www.w3.org/2000/svg">
  <circle cx="22.5" cy="22.5" r="21.5" fill="white" stroke="#FF5570" stroke-width="2"/>
  <path opacity="0.4" d="M26.8716 13.5H30.0882C31.4204 13.5 32.4998 14.5886 32.4998 15.932V19.1758C32.4998 20.5192 31.4204 21.6078 30.0882 21.6078H26.8716C25.5394 21.6078 24.46 20.5192 24.46 19.1758V15.932C24.46 14.5886 25.5394 13.5 26.8716 13.5Z" fill="#FF5570"/>
  <path fill-rule="evenodd" clip-rule="evenodd" d="M15.9116 13.5H19.1283C20.4604 13.5 21.5399 14.5886 21.5399 15.932V19.1758C21.5399 20.5192 20.4604 21.6078 19.1283 21.6078H15.9116C14.5794 21.6078 13.5 20.5192 13.5 19.1758V15.932C13.5 14.5886 14.5794 13.5 15.9116 13.5ZM15.9116 24.3922H19.1283C20.4604 24.3922 21.5399 25.4808 21.5399 26.8242V30.068C21.5399 31.4105 20.4604 32.5 19.1283 32.5H15.9116C14.5794 32.5 13.5 31.4105 13.5 30.068V26.8242C13.5 25.4808 14.5794 24.3922 15.9116 24.3922ZM30.0884 24.3922H26.8717C25.5396 24.3922 24.4601 25.4808 24.4601 26.8242V30.068C24.4601 31.4105 25.5396 32.5 26.8717 32.5H30.0884C31.4206 32.5 32.5 31.4105 32.5 30.068V26.8242C32.5 25.4808 31.4206 24.3922 30.0884 24.3922Z" fill="#FF5570"/>
</svg>
