<svg width="34" height="29" viewBox="0 0 34 29" fill="none" xmlns="http://www.w3.org/2000/svg">
  <path d="M25.8435 27V27.65V27ZM22.0911 23.2476H21.4411H22.0911ZM29.596 23.2476H30.246H29.596ZM8.34393 27V27.65V27ZM4.5968 23.8994C4.95578 23.8994 5.2468 23.6084 5.2468 23.2494C5.2468 22.8905 4.95578 22.5994 4.5968 22.5994V23.8994ZM0.846878 23.2494H0.196878C0.196878 23.6084 0.487893 23.8994 0.846878 23.8994L0.846878 23.2494ZM0.846878 18.2496H0.196878H0.846878ZM5.84677 13.2497V13.8997V13.2497ZM15.8466 18.2496H16.4966H15.8466ZM19.5965 23.2494V23.8994V23.2494ZM22.0964 23.8994C22.4554 23.8994 22.7464 23.6084 22.7464 23.2494C22.7464 22.8905 22.4554 22.5994 22.0964 22.5994V23.8994ZM12.0966 22.5994C11.7376 22.5994 11.4466 22.8905 11.4466 23.2494C11.4466 23.6084 11.7376 23.8994 12.0966 23.8994V22.5994ZM29.5963 22.5994C29.2373 22.5994 28.9463 22.8905 28.9463 23.2494C28.9463 23.6084 29.2373 23.8994 29.5963 23.8994V22.5994ZM33.1162 20.7645L32.4778 20.8868L32.4778 20.887L33.1162 20.7645ZM23.3464 12.5997C22.9874 12.5997 22.6964 12.8907 22.6964 13.2497C22.6964 13.6087 22.9874 13.8997 23.3464 13.8997V12.5997ZM19.5967 1.35C19.2377 1.35 18.9467 1.64101 18.9467 2C18.9467 2.35899 19.2377 2.65 19.5967 2.65V1.35ZM23.3466 2H23.9966C23.9966 1.64101 23.7056 1.35 23.3466 1.35V2ZM22.6966 20.4471C22.6966 20.8061 22.9877 21.0971 23.3466 21.0971C23.7056 21.0971 23.9966 20.8061 23.9966 20.4471H22.6966ZM28.3467 4.49966H28.9967C28.9967 4.14067 28.7057 3.84966 28.3467 3.84966V4.49966ZM28.3467 9.49955V10.1495C28.7057 10.1495 28.9967 9.85853 28.9967 9.49955H28.3467ZM9.59669 2V1.35V2ZM3.34682 2V1.35V2ZM0.846878 4.49994H0.196878H0.846878ZM0.846878 10.7498H0.196878H0.846878ZM25.8435 26.35C25.0207 26.35 24.2316 26.0231 23.6498 25.4413L22.7306 26.3606C23.5562 27.1862 24.6759 27.65 25.8435 27.65V26.35ZM23.6498 25.4413C23.068 24.8595 22.7411 24.0704 22.7411 23.2476H21.4411C21.4411 24.4152 21.9049 25.5349 22.7306 26.3606L23.6498 25.4413ZM22.7411 23.2476C22.7411 22.4248 23.068 21.6357 23.6498 21.0538L22.7306 20.1346C21.9049 20.9602 21.4411 22.08 21.4411 23.2476H22.7411ZM23.6498 21.0538C24.2316 20.472 25.0207 20.1452 25.8435 20.1452V18.8452C24.6759 18.8452 23.5562 19.309 22.7306 20.1346L23.6498 21.0538ZM25.8435 20.1452C26.6664 20.1452 27.4555 20.472 28.0373 21.0538L28.9565 20.1346C28.1309 19.309 27.0111 18.8452 25.8435 18.8452V20.1452ZM28.0373 21.0538C28.6191 21.6357 28.946 22.4248 28.946 23.2476H30.246C30.246 22.08 29.7821 20.9602 28.9565 20.1346L28.0373 21.0538ZM28.946 23.2476C28.946 24.0704 28.6191 24.8595 28.0373 25.4413L28.9565 26.3606C29.7821 25.5349 30.246 24.4152 30.246 23.2476H28.946ZM28.0373 25.4413C27.4555 26.0231 26.6664 26.35 25.8435 26.35V27.65C27.0111 27.65 28.1309 27.1862 28.9565 26.3606L28.0373 25.4413ZM8.34393 26.35C7.52111 26.35 6.732 26.0231 6.15019 25.4413L5.23095 26.3606C6.05656 27.1862 7.17633 27.65 8.34393 27.65V26.35ZM6.15019 25.4413C5.56837 24.8595 5.24151 24.0704 5.24151 23.2476H3.94151C3.94151 24.4152 4.40533 25.5349 5.23095 26.3606L6.15019 25.4413ZM5.24151 23.2476C5.24151 22.4248 5.56837 21.6357 6.15019 21.0538L5.23095 20.1346C4.40533 20.9602 3.94151 22.08 3.94151 23.2476H5.24151ZM6.15019 21.0538C6.732 20.472 7.52111 20.1452 8.34393 20.1452V18.8452C7.17633 18.8452 6.05656 19.309 5.23095 20.1346L6.15019 21.0538ZM8.34393 20.1452C9.16674 20.1452 9.95585 20.472 10.5377 21.0538L11.4569 20.1346C10.6313 19.309 9.51152 18.8452 8.34393 18.8452V20.1452ZM10.5377 21.0538C11.1195 21.6357 11.4463 22.4248 11.4463 23.2476H12.7463C12.7463 22.08 12.2825 20.9602 11.4569 20.1346L10.5377 21.0538ZM11.4463 23.2476C11.4463 24.0704 11.1195 24.8595 10.5377 25.4413L11.4569 26.3606C12.2825 25.5349 12.7463 24.4152 12.7463 23.2476H11.4463ZM10.5377 25.4413C9.95585 26.0231 9.16674 26.35 8.34393 26.35V27.65C9.51152 27.65 10.6313 27.1862 11.4569 26.3606L10.5377 25.4413ZM4.5968 22.5994H0.846878V23.8994H4.5968V22.5994ZM1.49688 23.2494V18.2496H0.196878V23.2494H1.49688ZM1.49688 18.2496C1.49688 17.0959 1.95517 15.9895 2.77093 15.1737L1.85169 14.2545C0.792133 15.314 0.196878 16.7511 0.196878 18.2496H1.49688ZM2.77093 15.1737C3.58669 14.358 4.69311 13.8997 5.84677 13.8997V12.5997C4.34832 12.5997 2.91125 13.1949 1.85169 14.2545L2.77093 15.1737ZM5.84677 13.8997H10.8467V12.5997H5.84677V13.8997ZM10.8467 13.8997C12.0003 13.8997 13.1067 14.358 13.9225 15.1737L14.8417 14.2545C13.7822 13.1949 12.3451 12.5997 10.8467 12.5997V13.8997ZM13.9225 15.1737C14.7383 15.9895 15.1966 17.0959 15.1966 18.2496H16.4966C16.4966 16.7511 15.9013 15.314 14.8417 14.2545L13.9225 15.1737ZM15.1966 18.2496V19.4995H16.4966V18.2496H15.1966ZM15.1966 19.4995C15.1966 20.6665 15.6601 21.7856 16.4853 22.6107L17.4045 21.6915C16.8231 21.1102 16.4966 20.3217 16.4966 19.4995H15.1966ZM16.4853 22.6107C17.3104 23.4359 18.4295 23.8994 19.5965 23.8994V22.5994C18.7743 22.5994 17.9858 22.2729 17.4045 21.6915L16.4853 22.6107ZM19.5965 23.8994H22.0964V22.5994H19.5965V23.8994ZM22.0964 22.5994H12.0966V23.8994H22.0964V22.5994ZM29.5963 23.8994H30.8462V22.5994H29.5963V23.8994ZM30.8462 23.8994C32.5406 23.8994 34.1081 22.4849 33.7545 20.642L32.4778 20.887C32.6442 21.7541 31.9118 22.5994 30.8462 22.5994V23.8994ZM33.7546 20.6422C32.8809 16.0812 29.635 12.5997 24.5964 12.5997V13.8997C28.8876 13.8997 31.6965 16.808 32.4778 20.8868L33.7546 20.6422ZM24.5964 12.5997H23.3464V13.8997H24.5964V12.5997ZM19.5967 2.65H23.3466V1.35H19.5967V2.65ZM22.6966 2V20.4471H23.9966V2H22.6966ZM28.3467 3.84966H25.8468V5.14966H28.3467V3.84966ZM25.8468 3.84966C25.0113 3.84966 24.2101 4.18152 23.6194 4.77225L24.5387 5.69149C24.8856 5.34456 25.3561 5.14966 25.8468 5.14966V3.84966ZM23.6194 4.77225C23.0287 5.36298 22.6968 6.16418 22.6968 6.9996H23.9968C23.9968 6.50897 24.1917 6.03842 24.5387 5.69149L23.6194 4.77225ZM22.6968 6.9996C22.6968 7.83502 23.0287 8.63622 23.6194 9.22695L24.5387 8.30771C24.1917 7.96078 23.9968 7.49024 23.9968 6.9996H22.6968ZM23.6194 9.22695C24.2101 9.81768 25.0113 10.1495 25.8468 10.1495V8.84955C25.3561 8.84955 24.8856 8.65464 24.5387 8.30771L23.6194 9.22695ZM25.8468 10.1495H28.3467V8.84955H25.8468V10.1495ZM28.9967 9.49955V4.49966H27.6967V9.49955H28.9967ZM3.34682 13.8998H9.59669V12.5998H3.34682V13.8998ZM9.59669 13.8998C10.4321 13.8998 11.2333 13.5679 11.824 12.9772L10.9048 12.0579C10.5579 12.4048 10.0873 12.5998 9.59669 12.5998V13.8998ZM11.824 12.9772C12.4148 12.3864 12.7466 11.5852 12.7466 10.7498H11.4466C11.4466 11.2404 11.2517 11.711 10.9048 12.0579L11.824 12.9772ZM12.7466 10.7498V4.49994H11.4466V10.7498H12.7466ZM12.7466 4.49994C12.7466 3.66453 12.4148 2.86333 11.824 2.2726L10.9048 3.19184C11.2517 3.53877 11.4466 4.00931 11.4466 4.49994H12.7466ZM11.824 2.2726C11.2333 1.68187 10.4321 1.35 9.59669 1.35V2.65C10.0873 2.65 10.5579 2.8449 10.9048 3.19184L11.824 2.2726ZM9.59669 1.35H3.34682V2.65H9.59669V1.35ZM3.34682 1.35C2.51141 1.35 1.71021 1.68187 1.11948 2.2726L2.03871 3.19184C2.38565 2.8449 2.85619 2.65 3.34682 2.65V1.35ZM1.11948 2.2726C0.528746 2.86333 0.196878 3.66453 0.196878 4.49994H1.49688C1.49688 4.00931 1.69178 3.53877 2.03871 3.19184L1.11948 2.2726ZM0.196878 4.49994V10.7498H1.49688V4.49994H0.196878ZM0.196878 10.7498C0.196878 11.5852 0.528747 12.3864 1.11948 12.9772L2.03871 12.0579C1.69178 11.711 1.49688 11.2404 1.49688 10.7498H0.196878ZM1.11948 12.9772C1.7102 13.5679 2.51141 13.8998 3.34682 13.8998V12.5998C2.85619 12.5998 2.38565 12.4048 2.03871 12.0579L1.11948 12.9772Z" fill="#121212"/>
</svg>
