<svg width="34" height="29" viewBox="0 0 34 29" fill="none" xmlns="http://www.w3.org/2000/svg">
  <path d="M24.7164 8.14615L24.6947 8.11486L21.3696 3.31156L24.7164 8.14615ZM24.7164 8.14615L24.7539 8.15241M24.7164 8.14615L24.7539 8.15241M24.7539 8.15241L30.4897 9.10834V11.6854L29.6177 16.3365C29.4155 17.4147 29.0805 18.1424 28.5367 18.7098C27.9008 19.3732 26.9893 19.7749 25.7375 19.9288L25.7375 19.9287L25.7333 19.9294L20.1486 20.8857L20.0743 20.8984L20.0738 20.9738L20.0367 26.91H18.406L18.4522 19.5219L25.5224 18.3123C26.4012 18.2064 26.9666 17.9831 27.3424 17.6034C27.7176 17.2243 27.8899 16.7027 28.0149 16.0359L28.8575 11.5421L28.8591 11.5339V11.5255V10.5659V10.4897L28.7839 10.4771L23.7686 9.64124L20.0288 4.23956L20.0288 4.23949C19.9385 4.10932 19.8184 4.00254 19.6786 3.928C19.5388 3.85347 19.3833 3.81332 19.2249 3.81089L19.2248 3.81089L12.9211 3.72036V3.72035L12.9198 3.72035C11.2912 3.72077 10.0847 3.87369 9.15197 4.24786C8.21506 4.62371 7.55991 5.2205 7.03045 6.09527C6.4014 7.1344 5.94303 8.60993 5.63516 10.6222C5.32715 12.6354 5.16889 15.1924 5.14429 18.3988L5.14359 18.4895H5.23428H7.94683C10.4276 18.4895 11.7885 16.4676 12.2405 14.6007L12.2405 14.6007L12.2411 14.5979L13.6961 7.62572H15.3619L13.832 14.9566L13.8292 14.9684L13.8291 14.9685C13.4822 16.4139 12.797 17.6555 11.8503 18.5613L11.85 18.5616C10.8043 19.5733 9.4026 20.1331 7.94764 20.1201H7.94683H7.33388H7.25981L7.24556 20.1928L5.92827 26.91H4.26655M24.7539 8.15241L4.26655 26.91M4.26655 26.91L5.57705 20.2275L5.5981 20.1201H5.48873H3.51026V19.3048C3.51026 11.8951 4.15126 7.7025 5.63549 5.25109L5.63549 5.25108C6.42996 3.93867 7.44143 3.15066 8.65625 2.68904C9.87426 2.22622 11.3006 2.09 12.9261 2.09H12.9384H12.9391L19.2481 2.18052C19.2482 2.18052 19.2482 2.18052 19.2482 2.18052C19.6662 2.18694 20.0767 2.29289 20.4456 2.48957C20.8145 2.68625 21.1312 2.968 21.3695 3.31148L4.26655 26.91Z" fill="#121212" stroke="white" stroke-width="0.18"/>
</svg>
