<svg width="34" height="29" viewBox="0 0 34 29" fill="none" xmlns="http://www.w3.org/2000/svg">
  <g clip-path="url(#clip0_2570_5494)">
    <path d="M13.6409 13.05C14.1028 13.05 14.4772 12.6756 14.4772 12.2137C14.4772 11.7519 14.1028 11.3774 13.6409 11.3774C13.1791 11.3774 12.8047 11.7519 12.8047 12.2137C12.8047 12.6756 13.1791 13.05 13.6409 13.05Z" fill="#D9D9D9" stroke="white" stroke-width="0.291587" stroke-miterlimit="10"/>
    <path d="M20.3299 13.05C20.7918 13.05 21.1662 12.6756 21.1662 12.2137C21.1662 11.7519 20.7918 11.3774 20.3299 11.3774C19.8681 11.3774 19.4937 11.7519 19.4937 12.2137C19.4937 12.6756 19.8681 13.05 20.3299 13.05Z" fill="#D9D9D9" stroke="white" stroke-width="0.291587" stroke-miterlimit="10"/>
    <path d="M30.2089 7.17269C29.2956 5.89962 28.18 4.81608 26.7985 3.85968C24.5177 2.28044 21.3446 2.70091 19.4814 4.74727C18.9262 4.66854 18.9583 4.68837 15.3135 4.68837C15.0347 4.68837 14.76 4.70936 14.49 4.74727C12.6256 2.70091 9.45314 2.28044 7.17235 3.85968C5.79081 4.81608 4.67519 5.89962 3.76194 7.17269C1.72958 10.0052 2.74839 13.4657 5.98559 14.761L7.47327 15.3558C6.50403 18.1819 6.11564 18.9901 6.11564 20.5746C6.11564 24.7239 9.49163 28.0999 13.6409 28.0999H20.3299C24.4792 28.0999 27.8552 24.7239 27.8552 20.5746C27.8552 18.9919 27.4715 18.1964 26.4976 15.3558L27.9853 14.761C31.2225 13.4663 32.2413 10.0052 30.2089 7.17269ZM6.60667 13.208C4.38069 12.3175 3.72287 10.095 5.12074 8.14718C5.92086 7.03273 6.90292 6.07982 8.12409 5.23422C9.49338 4.28598 11.3263 4.3752 12.6466 5.33103C11.3263 6.00693 10.2783 7.17502 9.77564 8.64171L8.0162 13.7719L6.60667 13.208ZM16.1491 25.5917V24.6119C16.4606 24.5017 16.744 24.3314 16.9854 24.1151C17.2269 24.3314 17.5103 24.5017 17.8217 24.6119V25.5917C17.8217 26.053 17.4467 26.4279 16.9854 26.4279C16.5241 26.4279 16.1491 26.053 16.1491 25.5917ZM20.3299 26.4279H19.3502C19.4429 26.1661 19.4942 25.885 19.4942 25.5917V24.6714C21.4001 24.283 22.8387 22.5936 22.8387 20.5746C22.8387 20.1127 22.4643 19.7383 22.0025 19.7383C21.5406 19.7383 21.1662 20.1127 21.1662 20.5746C21.1662 21.9579 20.0407 23.0829 18.658 23.0829C18.1967 23.0829 17.8217 22.7079 17.8217 22.2466V19.5943C18.795 19.2491 19.4942 18.3195 19.4942 17.2295C19.4942 16.7677 19.1198 16.3933 18.658 16.3933C18.1961 16.3933 17.8217 16.7677 17.8217 17.2295C17.8217 17.6914 17.4467 18.0658 16.9854 18.0658C16.5241 18.0658 16.1491 17.6908 16.1491 17.2295C16.1491 16.7682 15.7748 16.3933 15.3129 16.3933C14.851 16.3933 14.4766 16.7677 14.4766 17.2295C14.4766 18.3195 15.1758 19.2491 16.1491 19.5943V22.2466C16.1491 22.7079 15.7742 23.0829 15.3129 23.0829C13.9296 23.0829 12.8046 21.9573 12.8046 20.5746C12.8046 20.1127 12.4302 19.7383 11.9684 19.7383C11.5065 19.7383 11.1321 20.1127 11.1321 20.5746C11.1321 22.5936 12.5708 24.2824 14.4766 24.6714V25.5917C14.4766 25.885 14.5273 26.1661 14.6206 26.4279H13.6409C10.4136 26.4279 7.78818 23.8025 7.78818 20.5752C7.78818 19.9244 7.89432 19.2852 8.10309 18.6758L11.3578 9.18464C11.9369 7.49577 13.5266 6.36091 15.3135 6.36091H18.658C20.4448 6.36091 22.0345 7.49577 22.6136 9.18464L25.8683 18.6758C26.0771 19.2852 26.1832 19.9244 26.1832 20.5752C26.1832 23.8025 23.5578 26.4279 20.3305 26.4279H20.3299ZM27.3642 13.208L25.9546 13.7719L24.1952 8.64171C23.6919 7.17444 22.644 6.00634 21.3242 5.33103C22.6445 4.3752 24.4775 4.28656 25.8468 5.23422C27.0679 6.07982 28.0506 7.03273 28.8501 8.14718C30.2474 10.095 29.5902 12.3175 27.3642 13.208Z" fill="#D9D9D9" stroke="white" stroke-width="0.291587" stroke-miterlimit="10"/>
  </g>
  <defs>
    <clipPath id="clip0_2570_5494">
      <rect width="34" height="28" fill="white" transform="translate(0 0.5)"/>
    </clipPath>
  </defs>
</svg>
