<svg width="35" height="28" viewBox="0 0 35 28" fill="none" xmlns="http://www.w3.org/2000/svg">
  <path d="M14.141 12.55C14.6028 12.55 14.9772 12.1756 14.9772 11.7137C14.9772 11.2519 14.6028 10.8774 14.141 10.8774C13.6791 10.8774 13.3047 11.2519 13.3047 11.7137C13.3047 12.1756 13.6791 12.55 14.141 12.55Z" fill="black" stroke="white" stroke-width="0.291587" stroke-miterlimit="10"/>
  <path d="M20.8299 12.55C21.2918 12.55 21.6662 12.1756 21.6662 11.7137C21.6662 11.2519 21.2918 10.8774 20.8299 10.8774C20.3681 10.8774 19.9937 11.2519 19.9937 11.7137C19.9937 12.1756 20.3681 12.55 20.8299 12.55Z" fill="black" stroke="white" stroke-width="0.291587" stroke-miterlimit="10"/>
  <path d="M30.7087 6.67269C29.7955 5.39962 28.6799 4.31608 27.2983 3.35968C25.0175 1.78044 21.8445 2.20091 19.9812 4.24727C19.426 4.16854 19.4581 4.18837 15.8133 4.18837C15.5345 4.18837 15.2598 4.20936 14.9898 4.24727C13.1254 2.20091 9.95296 1.78044 7.67216 3.35968C6.29062 4.31608 5.17501 5.39962 4.26176 6.67269C2.2294 9.50517 3.2482 12.9657 6.4854 14.261L7.97308 14.8558C7.00385 17.6819 6.61545 18.4901 6.61545 20.0746C6.61545 24.2239 9.99145 27.5999 14.1407 27.5999H20.8297C24.979 27.5999 28.355 24.2239 28.355 20.0746C28.355 18.4919 27.9713 17.6964 26.9974 14.8558L28.4851 14.261C31.7223 12.9663 32.7411 9.50517 30.7087 6.67269ZM7.10649 12.708C4.88051 11.8175 4.22269 9.59498 5.62056 7.64718C6.42067 6.53273 7.40274 5.57982 8.6239 4.73422C9.9932 3.78598 11.8261 3.8752 13.1464 4.83103C11.8261 5.50693 10.7782 6.67502 10.2755 8.14171L8.51602 13.2719L7.10649 12.708ZM16.649 25.0917V24.1119C16.9604 24.0017 17.2438 23.8314 17.4852 23.6151C17.7267 23.8314 18.0101 24.0017 18.3215 24.1119V25.0917C18.3215 25.553 17.9465 25.9279 17.4852 25.9279C17.0239 25.9279 16.649 25.553 16.649 25.0917ZM20.8297 25.9279H19.85C19.9427 25.6661 19.9941 25.385 19.9941 25.0917V24.1714C21.8999 23.783 23.3386 22.0936 23.3386 20.0746C23.3386 19.6127 22.9642 19.2383 22.5023 19.2383C22.0404 19.2383 21.666 19.6127 21.666 20.0746C21.666 21.4579 20.5405 22.5829 19.1578 22.5829C18.6965 22.5829 18.3215 22.2079 18.3215 21.7466V19.0943C19.2948 18.7491 19.9941 17.8195 19.9941 16.7295C19.9941 16.2677 19.6197 15.8933 19.1578 15.8933C18.6959 15.8933 18.3215 16.2677 18.3215 16.7295C18.3215 17.1914 17.9465 17.5658 17.4852 17.5658C17.0239 17.5658 16.649 17.1908 16.649 16.7295C16.649 16.2682 16.2746 15.8933 15.8127 15.8933C15.3508 15.8933 14.9764 16.2677 14.9764 16.7295C14.9764 17.8195 15.6756 18.7491 16.649 19.0943V21.7466C16.649 22.2079 16.274 22.5829 15.8127 22.5829C14.4294 22.5829 13.3045 21.4573 13.3045 20.0746C13.3045 19.6127 12.9301 19.2383 12.4682 19.2383C12.0063 19.2383 11.6319 19.6127 11.6319 20.0746C11.6319 22.0936 13.0706 23.7824 14.9764 24.1714V25.0917C14.9764 25.385 15.0272 25.6661 15.1205 25.9279H14.1407C10.9134 25.9279 8.288 23.3025 8.288 20.0752C8.288 19.4244 8.39413 18.7852 8.60291 18.1758L11.8576 8.68464C12.4367 6.99577 14.0264 5.86091 15.8133 5.86091H19.1578C20.9446 5.86091 22.5344 6.99577 23.1135 8.68464L26.3681 18.1758C26.5769 18.7852 26.6831 19.4244 26.6831 20.0752C26.6831 23.3025 24.0576 25.9279 20.8303 25.9279H20.8297ZM27.864 12.708L26.4545 13.2719L24.695 8.14171C24.1917 6.67444 23.1438 5.50634 21.8241 4.83103C23.1444 3.8752 24.9773 3.78656 26.3466 4.73422C27.5677 5.57982 28.5504 6.53273 29.3499 7.64718C30.7472 9.59498 30.09 11.8175 27.864 12.708Z" fill="black" stroke="white" stroke-width="0.291587" stroke-miterlimit="10"/>
</svg>
