<svg width="34" height="29" viewBox="0 0 34 29" fill="none" xmlns="http://www.w3.org/2000/svg">
  <mask id="path-1-inside-1_2570_5496" fill="white">
    <path d="M30.4435 9.03125C30.9318 9.30252 31.3767 9.63346 31.7781 10.0241C32.1796 10.4147 32.516 10.8487 32.7873 11.3262C33.0585 11.8036 33.2755 12.3082 33.4383 12.8398C33.6011 13.3715 33.677 13.9249 33.6662 14.5H31.5828C31.5828 13.9358 31.4743 13.3987 31.2573 12.8887C31.0403 12.3787 30.7419 11.9392 30.3621 11.5703C29.9823 11.2014 29.5375 10.903 29.0275 10.6751C28.5175 10.4473 27.9804 10.3333 27.4162 10.3333C26.8411 10.3333 26.304 10.4418 25.8048 10.6589C25.3057 10.8759 24.8662 11.1743 24.4865 11.554C24.1067 11.9338 23.8083 12.3787 23.5913 12.8887C23.3743 13.3987 23.2603 13.9358 23.2495 14.5C23.2495 15.4874 23.0271 16.426 22.5822 17.3158C22.1373 18.2055 21.5134 18.9434 20.7104 19.5293C21.4157 19.8874 22.0505 20.3268 22.6147 20.8477C23.179 21.3685 23.6672 21.9544 24.0796 22.6055C24.4919 23.2565 24.8011 23.951 25.0073 24.6888C25.2135 25.4266 25.322 26.197 25.3328 27H23.2495C23.2495 26.1428 23.0867 25.3344 22.7612 24.5749C22.4357 23.8153 21.9854 23.1534 21.4103 22.5892C20.8352 22.025 20.1733 21.5801 19.4246 21.2546C18.6759 20.929 17.8675 20.7609 16.9995 20.75C16.1423 20.75 15.3339 20.9128 14.5744 21.2383C13.8148 21.5638 13.1529 22.0141 12.5887 22.5892C12.0244 23.1643 11.5796 23.8262 11.254 24.5749C10.9285 25.3236 10.7603 26.1319 10.7495 27H8.66616C8.66616 26.2079 8.77467 25.4429 8.99168 24.7051C9.20869 23.9672 9.51794 23.2728 9.91941 22.6217C10.3209 21.9707 10.8037 21.3848 11.368 20.8639C11.9322 20.3431 12.5724 19.8982 13.2886 19.5293C12.4965 18.9434 11.878 18.2055 11.4331 17.3158C10.9882 16.426 10.7603 15.4874 10.7495 14.5C10.7495 13.9358 10.641 13.3987 10.424 12.8887C10.207 12.3787 9.90856 11.9392 9.52879 11.5703C9.14901 11.2014 8.70414 10.903 8.19415 10.6751C7.68417 10.4473 7.14706 10.3333 6.58283 10.3333C6.00774 10.3333 5.47063 10.4418 4.9715 10.6589C4.47236 10.8759 4.03291 11.1743 3.65314 11.554C3.27336 11.9338 2.97497 12.3787 2.75796 12.8887C2.54094 13.3987 2.42701 13.9358 2.41616 14.5H0.332825C0.332825 13.9358 0.40878 13.3878 0.560689 12.8561C0.712599 12.3244 0.924188 11.8199 1.19545 11.3424C1.46672 10.865 1.80852 10.431 2.22085 10.0404C2.63317 9.64974 3.07805 9.31337 3.55548 9.03125C3.19741 8.65148 2.92072 8.21202 2.7254 7.71289C2.53009 7.21376 2.42701 6.69835 2.41616 6.16667C2.41616 5.60243 2.52467 5.06532 2.74168 4.55534C2.95869 4.04536 3.25709 3.6059 3.63686 3.23698C4.01664 2.86806 4.45609 2.56966 4.95522 2.3418C5.45435 2.11393 5.99689 2 6.58283 2C7.14706 2 7.68417 2.10851 8.19415 2.32552C8.70414 2.54253 9.14359 2.84093 9.51251 3.2207C9.88144 3.60048 10.1798 4.04536 10.4077 4.55534C10.6356 5.06532 10.7495 5.60243 10.7495 6.16667C10.7495 6.69835 10.6518 7.21376 10.4565 7.71289C10.2612 8.21202 9.97909 8.65148 9.61017 9.03125C10.4999 9.51953 11.2269 10.1923 11.7912 11.0495C12.3771 10.1814 13.1258 9.49783 14.0373 8.9987C14.9487 8.49957 15.9361 8.25 16.9995 8.25C18.052 8.25 19.034 8.49957 19.9455 8.9987C20.8569 9.49783 21.611 10.1814 22.2078 11.0495C22.7721 10.1923 23.4991 9.51953 24.3888 9.03125C24.0307 8.65148 23.7541 8.21202 23.5587 7.71289C23.3634 7.21376 23.2603 6.69835 23.2495 6.16667C23.2495 5.60243 23.358 5.06532 23.575 4.55534C23.792 4.04536 24.0904 3.6059 24.4702 3.23698C24.85 2.86806 25.2894 2.56966 25.7886 2.3418C26.2877 2.11393 26.8302 2 27.4162 2C27.9804 2 28.5175 2.10851 29.0275 2.32552C29.5375 2.54253 29.9769 2.84093 30.3458 3.2207C30.7148 3.60048 31.0132 4.04536 31.241 4.55534C31.4689 5.06532 31.5828 5.60243 31.5828 6.16667C31.5828 6.69835 31.4852 7.21376 31.2899 7.71289C31.0945 8.21202 30.8124 8.65148 30.4435 9.03125ZM4.49949 6.16667C4.49949 6.45964 4.55375 6.7309 4.66225 6.98047C4.77076 7.23003 4.91724 7.44705 5.10171 7.63151C5.28617 7.81597 5.50861 7.96788 5.76902 8.08724C6.02944 8.2066 6.30071 8.26085 6.58283 8.25C6.87579 8.25 7.14706 8.19575 7.39663 8.08724C7.64619 7.97873 7.86321 7.83225 8.04767 7.64779C8.23213 7.46332 8.38404 7.24089 8.5034 6.98047C8.62276 6.72005 8.67701 6.44878 8.66616 6.16667C8.66616 5.8737 8.61191 5.60243 8.5034 5.35286C8.39489 5.1033 8.24841 4.88628 8.06395 4.70182C7.87948 4.51736 7.65704 4.36545 7.39663 4.24609C7.13621 4.12674 6.86494 4.07248 6.58283 4.08333C6.28986 4.08333 6.01859 4.13759 5.76902 4.24609C5.51946 4.3546 5.30244 4.50109 5.11798 4.68555C4.93352 4.87001 4.78161 5.09245 4.66225 5.35286C4.54289 5.61328 4.48864 5.88455 4.49949 6.16667ZM16.9995 18.6667C17.5637 18.6667 18.1008 18.5582 18.6108 18.3411C19.1208 18.1241 19.5603 17.8257 19.9292 17.446C20.2981 17.0662 20.5965 16.6267 20.8244 16.1276C21.0522 15.6285 21.1662 15.0859 21.1662 14.5C21.1662 13.9358 21.0577 13.3987 20.8406 12.8887C20.6236 12.3787 20.3252 11.9392 19.9455 11.5703C19.5657 11.2014 19.1208 10.903 18.6108 10.6751C18.1008 10.4473 17.5637 10.3333 16.9995 10.3333C16.4244 10.3333 15.8873 10.4418 15.3882 10.6589C14.889 10.8759 14.4496 11.1743 14.0698 11.554C13.69 11.9338 13.3916 12.3787 13.1746 12.8887C12.9576 13.3987 12.8437 13.9358 12.8328 14.5C12.8328 15.0751 12.9413 15.6122 13.1583 16.1113C13.3754 16.6105 13.6738 17.0499 14.0535 17.4297C14.4333 17.8095 14.8728 18.1079 15.3719 18.3249C15.871 18.5419 16.4136 18.6558 16.9995 18.6667ZM25.3328 6.16667C25.3328 6.45964 25.3871 6.7309 25.4956 6.98047C25.6041 7.23003 25.7506 7.44705 25.935 7.63151C26.1195 7.81597 26.3419 7.96788 26.6024 8.08724C26.8628 8.2066 27.134 8.26085 27.4162 8.25C27.7091 8.25 27.9804 8.19575 28.23 8.08724C28.4795 7.97873 28.6965 7.83225 28.881 7.64779C29.0655 7.46332 29.2174 7.24089 29.3367 6.98047C29.4561 6.72005 29.5103 6.44878 29.4995 6.16667C29.4995 5.8737 29.4452 5.60243 29.3367 5.35286C29.2282 5.1033 29.0817 4.88628 28.8973 4.70182C28.7128 4.51736 28.4904 4.36545 28.23 4.24609C27.9695 4.12674 27.6983 4.07248 27.4162 4.08333C27.1232 4.08333 26.8519 4.13759 26.6024 4.24609C26.3528 4.3546 26.1358 4.50109 25.9513 4.68555C25.7669 4.87001 25.6149 5.09245 25.4956 5.35286C25.3762 5.61328 25.322 5.88455 25.3328 6.16667Z"/>
  </mask>
  <path d="M30.4435 9.03125C30.9318 9.30252 31.3767 9.63346 31.7781 10.0241C32.1796 10.4147 32.516 10.8487 32.7873 11.3262C33.0585 11.8036 33.2755 12.3082 33.4383 12.8398C33.6011 13.3715 33.677 13.9249 33.6662 14.5H31.5828C31.5828 13.9358 31.4743 13.3987 31.2573 12.8887C31.0403 12.3787 30.7419 11.9392 30.3621 11.5703C29.9823 11.2014 29.5375 10.903 29.0275 10.6751C28.5175 10.4473 27.9804 10.3333 27.4162 10.3333C26.8411 10.3333 26.304 10.4418 25.8048 10.6589C25.3057 10.8759 24.8662 11.1743 24.4865 11.554C24.1067 11.9338 23.8083 12.3787 23.5913 12.8887C23.3743 13.3987 23.2603 13.9358 23.2495 14.5C23.2495 15.4874 23.0271 16.426 22.5822 17.3158C22.1373 18.2055 21.5134 18.9434 20.7104 19.5293C21.4157 19.8874 22.0505 20.3268 22.6147 20.8477C23.179 21.3685 23.6672 21.9544 24.0796 22.6055C24.4919 23.2565 24.8011 23.951 25.0073 24.6888C25.2135 25.4266 25.322 26.197 25.3328 27H23.2495C23.2495 26.1428 23.0867 25.3344 22.7612 24.5749C22.4357 23.8153 21.9854 23.1534 21.4103 22.5892C20.8352 22.025 20.1733 21.5801 19.4246 21.2546C18.6759 20.929 17.8675 20.7609 16.9995 20.75C16.1423 20.75 15.3339 20.9128 14.5744 21.2383C13.8148 21.5638 13.1529 22.0141 12.5887 22.5892C12.0244 23.1643 11.5796 23.8262 11.254 24.5749C10.9285 25.3236 10.7603 26.1319 10.7495 27H8.66616C8.66616 26.2079 8.77467 25.4429 8.99168 24.7051C9.20869 23.9672 9.51794 23.2728 9.91941 22.6217C10.3209 21.9707 10.8037 21.3848 11.368 20.8639C11.9322 20.3431 12.5724 19.8982 13.2886 19.5293C12.4965 18.9434 11.878 18.2055 11.4331 17.3158C10.9882 16.426 10.7603 15.4874 10.7495 14.5C10.7495 13.9358 10.641 13.3987 10.424 12.8887C10.207 12.3787 9.90856 11.9392 9.52879 11.5703C9.14901 11.2014 8.70414 10.903 8.19415 10.6751C7.68417 10.4473 7.14706 10.3333 6.58283 10.3333C6.00774 10.3333 5.47063 10.4418 4.9715 10.6589C4.47236 10.8759 4.03291 11.1743 3.65314 11.554C3.27336 11.9338 2.97497 12.3787 2.75796 12.8887C2.54094 13.3987 2.42701 13.9358 2.41616 14.5H0.332825C0.332825 13.9358 0.40878 13.3878 0.560689 12.8561C0.712599 12.3244 0.924188 11.8199 1.19545 11.3424C1.46672 10.865 1.80852 10.431 2.22085 10.0404C2.63317 9.64974 3.07805 9.31337 3.55548 9.03125C3.19741 8.65148 2.92072 8.21202 2.7254 7.71289C2.53009 7.21376 2.42701 6.69835 2.41616 6.16667C2.41616 5.60243 2.52467 5.06532 2.74168 4.55534C2.95869 4.04536 3.25709 3.6059 3.63686 3.23698C4.01664 2.86806 4.45609 2.56966 4.95522 2.3418C5.45435 2.11393 5.99689 2 6.58283 2C7.14706 2 7.68417 2.10851 8.19415 2.32552C8.70414 2.54253 9.14359 2.84093 9.51251 3.2207C9.88144 3.60048 10.1798 4.04536 10.4077 4.55534C10.6356 5.06532 10.7495 5.60243 10.7495 6.16667C10.7495 6.69835 10.6518 7.21376 10.4565 7.71289C10.2612 8.21202 9.97909 8.65148 9.61017 9.03125C10.4999 9.51953 11.2269 10.1923 11.7912 11.0495C12.3771 10.1814 13.1258 9.49783 14.0373 8.9987C14.9487 8.49957 15.9361 8.25 16.9995 8.25C18.052 8.25 19.034 8.49957 19.9455 8.9987C20.8569 9.49783 21.611 10.1814 22.2078 11.0495C22.7721 10.1923 23.4991 9.51953 24.3888 9.03125C24.0307 8.65148 23.7541 8.21202 23.5587 7.71289C23.3634 7.21376 23.2603 6.69835 23.2495 6.16667C23.2495 5.60243 23.358 5.06532 23.575 4.55534C23.792 4.04536 24.0904 3.6059 24.4702 3.23698C24.85 2.86806 25.2894 2.56966 25.7886 2.3418C26.2877 2.11393 26.8302 2 27.4162 2C27.9804 2 28.5175 2.10851 29.0275 2.32552C29.5375 2.54253 29.9769 2.84093 30.3458 3.2207C30.7148 3.60048 31.0132 4.04536 31.241 4.55534C31.4689 5.06532 31.5828 5.60243 31.5828 6.16667C31.5828 6.69835 31.4852 7.21376 31.2899 7.71289C31.0945 8.21202 30.8124 8.65148 30.4435 9.03125ZM4.49949 6.16667C4.49949 6.45964 4.55375 6.7309 4.66225 6.98047C4.77076 7.23003 4.91724 7.44705 5.10171 7.63151C5.28617 7.81597 5.50861 7.96788 5.76902 8.08724C6.02944 8.2066 6.30071 8.26085 6.58283 8.25C6.87579 8.25 7.14706 8.19575 7.39663 8.08724C7.64619 7.97873 7.86321 7.83225 8.04767 7.64779C8.23213 7.46332 8.38404 7.24089 8.5034 6.98047C8.62276 6.72005 8.67701 6.44878 8.66616 6.16667C8.66616 5.8737 8.61191 5.60243 8.5034 5.35286C8.39489 5.1033 8.24841 4.88628 8.06395 4.70182C7.87948 4.51736 7.65704 4.36545 7.39663 4.24609C7.13621 4.12674 6.86494 4.07248 6.58283 4.08333C6.28986 4.08333 6.01859 4.13759 5.76902 4.24609C5.51946 4.3546 5.30244 4.50109 5.11798 4.68555C4.93352 4.87001 4.78161 5.09245 4.66225 5.35286C4.54289 5.61328 4.48864 5.88455 4.49949 6.16667ZM16.9995 18.6667C17.5637 18.6667 18.1008 18.5582 18.6108 18.3411C19.1208 18.1241 19.5603 17.8257 19.9292 17.446C20.2981 17.0662 20.5965 16.6267 20.8244 16.1276C21.0522 15.6285 21.1662 15.0859 21.1662 14.5C21.1662 13.9358 21.0577 13.3987 20.8406 12.8887C20.6236 12.3787 20.3252 11.9392 19.9455 11.5703C19.5657 11.2014 19.1208 10.903 18.6108 10.6751C18.1008 10.4473 17.5637 10.3333 16.9995 10.3333C16.4244 10.3333 15.8873 10.4418 15.3882 10.6589C14.889 10.8759 14.4496 11.1743 14.0698 11.554C13.69 11.9338 13.3916 12.3787 13.1746 12.8887C12.9576 13.3987 12.8437 13.9358 12.8328 14.5C12.8328 15.0751 12.9413 15.6122 13.1583 16.1113C13.3754 16.6105 13.6738 17.0499 14.0535 17.4297C14.4333 17.8095 14.8728 18.1079 15.3719 18.3249C15.871 18.5419 16.4136 18.6558 16.9995 18.6667ZM25.3328 6.16667C25.3328 6.45964 25.3871 6.7309 25.4956 6.98047C25.6041 7.23003 25.7506 7.44705 25.935 7.63151C26.1195 7.81597 26.3419 7.96788 26.6024 8.08724C26.8628 8.2066 27.134 8.26085 27.4162 8.25C27.7091 8.25 27.9804 8.19575 28.23 8.08724C28.4795 7.97873 28.6965 7.83225 28.881 7.64779C29.0655 7.46332 29.2174 7.24089 29.3367 6.98047C29.4561 6.72005 29.5103 6.44878 29.4995 6.16667C29.4995 5.8737 29.4452 5.60243 29.3367 5.35286C29.2282 5.1033 29.0817 4.88628 28.8973 4.70182C28.7128 4.51736 28.4904 4.36545 28.23 4.24609C27.9695 4.12674 27.6983 4.07248 27.4162 4.08333C27.1232 4.08333 26.8519 4.13759 26.6024 4.24609C26.3528 4.3546 26.1358 4.50109 25.9513 4.68555C25.7669 4.87001 25.6149 5.09245 25.4956 5.35286C25.3762 5.61328 25.322 5.88455 25.3328 6.16667Z" fill="#121212" stroke="white" stroke-width="0.6" mask="url(#path-1-inside-1_2570_5496)"/>
</svg>
