<svg width="34" height="29" viewBox="0 0 34 29" fill="none" xmlns="http://www.w3.org/2000/svg">
  <circle cx="17" cy="14.5" r="11.8" stroke="#121212" stroke-width="1.4"/>
  <path d="M13.486 20.7588V9.45427H17.8948C18.8853 9.45427 19.7304 9.61038 20.4302 9.9226C21.13 10.2348 21.6684 10.687 22.0452 11.2791C22.422 11.8713 22.6104 12.5765 22.6104 13.3947C22.6104 14.2129 22.422 14.9181 22.0452 15.5103C21.6684 16.0916 21.13 16.5438 20.4302 16.8668C19.7304 17.179 18.8853 17.3351 17.8948 17.3351H14.3743L15.101 16.5761V20.7588H13.486ZM15.101 16.7376L14.3743 15.9301H17.8464C18.8799 15.9301 19.6605 15.7094 20.188 15.268C20.7263 14.8266 20.9955 14.2022 20.9955 13.3947C20.9955 12.5872 20.7263 11.9628 20.188 11.5214C19.6605 11.08 18.8799 10.8593 17.8464 10.8593H14.3743L15.101 10.0518V16.7376Z" fill="#121212"/>
</svg>
