<svg xmlns="http://www.w3.org/2000/svg" width="20" height="22" viewBox="0 0 20 22" fill="none">
  <path d="M0.5 9.75922C0.5 9.15295 0.5 8.84982 0.57814 8.57066C0.647357 8.32338 0.761108 8.0908 0.913806 7.88435C1.08619 7.65128 1.32547 7.46517 1.80402 7.09296L8.96312 1.52477C9.33397 1.23634 9.51939 1.09212 9.72413 1.03669C9.90479 0.987771 10.0952 0.987771 10.2759 1.03669C10.4806 1.09212 10.666 1.23634 11.0369 1.52477L18.196 7.09296C18.6745 7.46517 18.9138 7.65128 19.0862 7.88435C19.2389 8.0908 19.3526 8.32338 19.4219 8.57066C19.5 8.84982 19.5 9.15295 19.5 9.75922V17.3961C19.5 18.5784 19.5 19.1696 19.2699 19.6212C19.0675 20.0184 18.7445 20.3414 18.3473 20.5438C17.8957 20.7739 17.3046 20.7739 16.1222 20.7739H3.87778C2.69544 20.7739 2.10428 20.7739 1.65269 20.5438C1.25546 20.3414 0.932497 20.0184 0.730097 19.6212C0.5 19.1696 0.5 18.5784 0.5 17.3961V9.75922Z" fill="#FF5570"/>
  <path d="M5.77778 16.5516H14.2222M8.96312 1.52477L1.80402 7.09296C1.32547 7.46517 1.08619 7.65128 0.913806 7.88435C0.761108 8.0908 0.647357 8.32338 0.57814 8.57066C0.5 8.84982 0.5 9.15295 0.5 9.75922V17.3961C0.5 18.5784 0.5 19.1696 0.730097 19.6212C0.932497 20.0184 1.25546 20.3414 1.65269 20.5438C2.10428 20.7739 2.69544 20.7739 3.87778 20.7739H16.1222C17.3046 20.7739 17.8957 20.7739 18.3473 20.5438C18.7445 20.3414 19.0675 20.0184 19.2699 19.6212C19.5 19.1696 19.5 18.5784 19.5 17.3961V9.75922C19.5 9.15295 19.5 8.84982 19.4219 8.57066C19.3526 8.32338 19.2389 8.0908 19.0862 7.88435C18.9138 7.65128 18.6745 7.46517 18.196 7.09296L11.0369 1.52477C10.666 1.23634 10.4806 1.09212 10.2759 1.03669C10.0952 0.987771 9.90479 0.987771 9.72413 1.03669C9.51939 1.09212 9.33397 1.23634 8.96312 1.52477Z" stroke="#FF5570" stroke-linecap="square" stroke-linejoin="round"/>
  <mask id="mask0_2848_6006" style="mask-type:alpha" maskUnits="userSpaceOnUse" x="3" y="14" width="13" height="4">
    <rect x="3.5" y="14" width="12" height="4" fill="#D9D9D9"/>
  </mask>
  <g mask="url(#mask0_2848_6006)">
    <path d="M0.5 9.75922C0.5 9.15295 0.5 8.84982 0.57814 8.57066C0.647357 8.32338 0.761108 8.0908 0.913806 7.88435C1.08619 7.65128 1.32547 7.46517 1.80402 7.09296L8.96312 1.52477C9.33397 1.23634 9.51939 1.09212 9.72413 1.03669C9.90479 0.987771 10.0952 0.987771 10.2759 1.03669C10.4806 1.09212 10.666 1.23634 11.0369 1.52477L18.196 7.09296C18.6745 7.46517 18.9138 7.65128 19.0862 7.88435C19.2389 8.0908 19.3526 8.32338 19.4219 8.57066C19.5 8.84982 19.5 9.15295 19.5 9.75922V17.3961C19.5 18.5784 19.5 19.1696 19.2699 19.6212C19.0675 20.0184 18.7445 20.3414 18.3473 20.5438C17.8957 20.7739 17.3046 20.7739 16.1222 20.7739H3.87778C2.69544 20.7739 2.10428 20.7739 1.65269 20.5438C1.25546 20.3414 0.932497 20.0184 0.730097 19.6212C0.5 19.1696 0.5 18.5784 0.5 17.3961V9.75922Z" fill="#FF5570"/>
    <path d="M5.77778 16.5516H14.2222M8.96312 1.52477L1.80402 7.09296C1.32547 7.46517 1.08619 7.65128 0.913806 7.88435C0.761108 8.0908 0.647357 8.32338 0.57814 8.57066C0.5 8.84982 0.5 9.15295 0.5 9.75922V17.3961C0.5 18.5784 0.5 19.1696 0.730097 19.6212C0.932497 20.0184 1.25546 20.3414 1.65269 20.5438C2.10428 20.7739 2.69544 20.7739 3.87778 20.7739H16.1222C17.3046 20.7739 17.8957 20.7739 18.3473 20.5438C18.7445 20.3414 19.0675 20.0184 19.2699 19.6212C19.5 19.1696 19.5 18.5784 19.5 17.3961V9.75922C19.5 9.15295 19.5 8.84982 19.4219 8.57066C19.3526 8.32338 19.2389 8.0908 19.0862 7.88435C18.9138 7.65128 18.6745 7.46517 18.196 7.09296L11.0369 1.52477C10.666 1.23634 10.4806 1.09212 10.2759 1.03669C10.0952 0.987771 9.90479 0.987771 9.72413 1.03669C9.51939 1.09212 9.33397 1.23634 8.96312 1.52477Z" stroke="white" stroke-linecap="square" stroke-linejoin="round"/>
  </g>
</svg>