<svg width="345" height="52" viewBox="0 0 345 52" fill="none" xmlns="http://www.w3.org/2000/svg">
<rect width="345" height="52" rx="6" fill="black"/>
<g clip-path="url(#clip0_1733_20454)">
<rect width="15" height="15" transform="translate(101.5 18.5)" fill="black"/>
<path d="M111.875 22.2604C112.011 22.2604 112.244 22.2821 112.573 22.3255C112.901 22.3689 113.261 22.493 113.652 22.6977C114.049 22.8962 114.409 23.2281 114.731 23.6933C114.713 23.7119 114.623 23.7801 114.461 23.898C114.3 24.0096 114.12 24.1771 113.922 24.4004C113.723 24.6175 113.549 24.8967 113.401 25.2378C113.252 25.5728 113.177 25.9729 113.177 26.4381C113.177 26.9716 113.27 27.4244 113.456 27.7965C113.649 28.1687 113.869 28.4696 114.117 28.6991C114.371 28.9224 114.595 29.0868 114.787 29.1922C114.985 29.2977 115.091 29.3535 115.103 29.3597C115.097 29.3845 115.016 29.6047 114.861 30.0203C114.713 30.4359 114.464 30.898 114.117 31.4067C113.813 31.8471 113.484 32.2534 113.131 32.6256C112.783 32.9977 112.365 33.1838 111.875 33.1838C111.546 33.1838 111.276 33.1373 111.065 33.0443C110.854 32.945 110.637 32.8489 110.414 32.7558C110.191 32.6566 109.89 32.607 109.511 32.607C109.145 32.607 108.838 32.6566 108.59 32.7558C108.348 32.8551 108.116 32.9543 107.892 33.0536C107.675 33.1528 107.418 33.2024 107.12 33.2024C106.667 33.2024 106.27 33.0226 105.929 32.6628C105.588 32.303 105.237 31.8719 104.878 31.3695C104.462 30.774 104.105 30.0482 103.808 29.1922C103.516 28.33 103.37 27.4616 103.37 26.587C103.37 25.6503 103.547 24.8656 103.901 24.2329C104.254 23.594 104.707 23.1133 105.259 22.7907C105.817 22.462 106.394 22.2976 106.99 22.2976C107.306 22.2976 107.604 22.3503 107.883 22.4558C108.162 22.555 108.423 22.6574 108.665 22.7628C108.913 22.8683 109.136 22.921 109.335 22.921C109.527 22.921 109.75 22.8652 110.004 22.7535C110.259 22.6419 110.544 22.5333 110.861 22.4279C111.177 22.3162 111.515 22.2604 111.875 22.2604ZM111.363 21.0787C111.121 21.3703 110.817 21.6153 110.451 21.8138C110.085 22.0061 109.738 22.1022 109.409 22.1022C109.341 22.1022 109.276 22.096 109.214 22.0836C109.207 22.065 109.201 22.0309 109.195 21.9813C109.189 21.9316 109.186 21.8789 109.186 21.8231C109.186 21.4509 109.266 21.0911 109.428 20.7438C109.589 20.3902 109.772 20.0987 109.977 19.8691C110.237 19.559 110.566 19.3016 110.963 19.0969C111.36 18.8922 111.738 18.7836 112.098 18.7712C112.117 18.8519 112.126 18.948 112.126 19.0597C112.126 19.4318 112.055 19.7947 111.912 20.1483C111.769 20.4956 111.586 20.8058 111.363 21.0787Z" fill="white"/>
</g>
<path d="M128.984 31.5H126.812L130.797 20.1875H133.297L137.297 31.5H135.125L134.188 28.7031H129.922L128.984 31.5ZM130.469 27.0625H133.641L132.094 22.5H132L130.469 27.0625ZM138.547 34.6875V23.0156H140.5V24.4062H140.625C140.938 23.7969 141.562 22.9062 143.062 22.9062C145.016 22.9062 146.562 24.4375 146.562 27.2656C146.562 30.0625 145.062 31.6562 143.062 31.6562C141.594 31.6562 140.938 30.7812 140.625 30.1562H140.547V34.6875H138.547ZM140.5 27.25C140.5 28.9062 141.219 30.0156 142.516 30.0156C143.828 30.0156 144.531 28.8594 144.531 27.25C144.531 25.6719 143.844 24.5312 142.516 24.5312C141.219 24.5312 140.5 25.6094 140.5 27.25ZM148.125 34.6875V23.0156H150.078V24.4062H150.203C150.516 23.7969 151.141 22.9062 152.641 22.9062C154.594 22.9062 156.141 24.4375 156.141 27.2656C156.141 30.0625 154.641 31.6562 152.641 31.6562C151.172 31.6562 150.516 30.7812 150.203 30.1562H150.125V34.6875H148.125ZM150.078 27.25C150.078 28.9062 150.797 30.0156 152.094 30.0156C153.406 30.0156 154.109 28.8594 154.109 27.25C154.109 25.6719 153.422 24.5312 152.094 24.5312C150.797 24.5312 150.078 25.6094 150.078 27.25ZM159.703 20.1875V31.5H157.703V20.1875H159.703ZM165.375 31.6719C162.812 31.6719 161.25 29.9688 161.25 27.3125C161.25 24.6875 162.844 22.9062 165.266 22.9062C167.344 22.9062 169.141 24.2031 169.141 27.1875V27.8125H163.219C163.242 29.2578 164.094 30.1094 165.391 30.1094C166.266 30.1094 166.859 29.7344 167.109 29.2344H169.062C168.703 30.7031 167.344 31.6719 165.375 31.6719ZM163.234 26.4531H167.234C167.219 25.2969 166.453 24.4531 165.297 24.4531C164.094 24.4531 163.297 25.3672 163.234 26.4531ZM183.109 29.8125V31.25H170.203V29.8125H175.766V27.5156H171.734V22.8906H179.859V21.1406H171.703V19.7344H181.578V24.2656H173.469V26.0938H181.906V27.5156H177.484V29.8125H183.109ZM193.172 22.1562C193.156 24.75 194.516 27.3438 196.812 28.3281L195.781 29.7188C194.156 28.9688 192.961 27.4688 192.312 25.625C191.664 27.6172 190.453 29.2422 188.734 30.0469L187.672 28.5938C190.031 27.5781 191.406 24.875 191.406 22.1562V19.9062H193.172V22.1562ZM199.578 18.7656V32.9062H197.828V18.7656H199.578ZM206.719 21.2188C206.719 22.9531 207.844 24.6719 210.062 25.4062L209.188 26.75C207.609 26.2266 206.484 25.1641 205.875 23.8438C205.242 25.2891 204.07 26.4375 202.422 27L201.5 25.6562C203.781 24.9062 204.969 23.0781 204.969 21.2188V21.0469H201.984V19.6562H209.656V21.0469H206.719V21.2188ZM212.797 18.7656V22.2969H214.766V23.75H212.797V27.2812H211.062V18.7656H212.797ZM212.797 27.9375V32.8906H211.062V29.3281H203.391V27.9375H212.797ZM226.547 18.7656V24.3906H228.719V25.8281H226.547V32.8906H224.828V18.7656H226.547ZM223.734 20.9375V22.3281H215.406V20.9375H218.75V18.9688H220.484V20.9375H223.734ZM219.625 23.25C221.656 23.25 223.172 24.625 223.172 26.5781C223.172 28.5312 221.656 29.8906 219.625 29.8906C217.562 29.8906 216.047 28.5312 216.062 26.5781C216.047 24.625 217.562 23.25 219.625 23.25ZM219.625 24.6719C218.516 24.6719 217.719 25.4219 217.719 26.5781C217.719 27.7344 218.516 28.4688 219.625 28.4531C220.703 28.4688 221.5 27.7344 221.516 26.5781C221.5 25.4219 220.703 24.6719 219.625 24.6719ZM241.109 18.7656V32.8906H239.359V18.7656H241.109ZM236.891 20.2656C236.891 24.4688 235.266 28.0469 230.312 30.3906L229.406 29C233.102 27.2422 234.82 24.8516 235.125 21.6406H230.125V20.2656H236.891Z" fill="white"/>
<defs>
<clipPath id="clip0_1733_20454">
<rect width="15" height="15" fill="white" transform="translate(101.5 18.5)"/>
</clipPath>
</defs>
</svg>
