<svg xmlns="http://www.w3.org/2000/svg" width="29" height="29" viewBox="0 0 29 29" fill="none">
  <g clip-path="url(#clip0_2958_6097)">
    <path d="M14.4502 27.7002C21.768 27.7002 27.7002 21.768 27.7002 14.4502C27.7002 7.13242 21.768 1.2002 14.4502 1.2002C7.13242 1.2002 1.2002 7.13242 1.2002 14.4502C1.2002 21.768 7.13242 27.7002 14.4502 27.7002Z" fill="#008AFF"/>
    <path d="M8.4877 14.4502L12.4627 18.4252L20.4127 10.4752M27.7002 14.4502C27.7002 21.768 21.768 27.7002 14.4502 27.7002C7.13242 27.7002 1.2002 21.768 1.2002 14.4502C1.2002 7.13242 7.13242 1.2002 14.4502 1.2002C21.768 1.2002 27.7002 7.13242 27.7002 14.4502Z" stroke="white" stroke-width="1.70357" stroke-linecap="square" stroke-linejoin="round"/>
  </g>
  <defs>
    <clipPath id="clip0_2958_6097">
      <rect width="29" height="29" fill="white"/>
    </clipPath>
  </defs>
</svg>