<svg width="10" height="10" viewBox="0 0 10 10" fill="none" xmlns="http://www.w3.org/2000/svg">
  <path d="M2.95588 1.19092H6.04183C7.01552 1.19092 7.50236 1.19092 7.87426 1.38041C8.20139 1.54709 8.46736 1.81306 8.63404 2.14019C8.82353 2.51209 8.82353 2.99893 8.82353 3.97262V7.05857M2.39085 9.01445H5.91144C6.39828 9.01445 6.6417 9.01445 6.82765 8.9197C6.99122 8.83636 7.1242 8.70338 7.20754 8.53981C7.30229 8.35386 7.30229 8.11044 7.30229 7.6236V4.10301C7.30229 3.61617 7.30229 3.37274 7.20754 3.1868C7.1242 3.02323 6.99122 2.89025 6.82765 2.80691C6.6417 2.71216 6.39828 2.71216 5.91144 2.71216H2.39085C1.90401 2.71216 1.66059 2.71216 1.47464 2.80691C1.31107 2.89025 1.17809 3.02323 1.09475 3.1868C1 3.37274 1 3.61617 1 4.10301V7.6236C1 8.11044 1 8.35386 1.09475 8.53981C1.17809 8.70338 1.31107 8.83636 1.47464 8.9197C1.66059 9.01445 1.90401 9.01445 2.39085 9.01445Z" stroke="#008AFF" stroke-width="0.670588" stroke-linecap="square" stroke-linejoin="round"/>
</svg>
