<svg width="23" height="23" viewBox="0 0 23 23" fill="none" xmlns="http://www.w3.org/2000/svg">
  <path d="M19.3273 11.1818C19.3273 15.6804 15.6804 19.3273 11.1818 19.3273M19.3273 11.1818C19.3273 6.68321 15.6804 3.03636 11.1818 3.03636M19.3273 11.1818H21.3636M11.1818 19.3273C6.68321 19.3273 3.03636 15.6804 3.03636 11.1818M11.1818 19.3273V21.3636M3.03636 11.1818C3.03636 6.68321 6.68321 3.03636 11.1818 3.03636M3.03636 11.1818H1M11.1818 3.03636V1M14.2364 11.1818C14.2364 12.8688 12.8688 14.2364 11.1818 14.2364C9.49484 14.2364 8.12727 12.8688 8.12727 11.1818C8.12727 9.49484 9.49484 8.12727 11.1818 8.12727C12.8688 8.12727 14.2364 9.49484 14.2364 11.1818Z" stroke="#FF5570" stroke-width="1.4315" stroke-linecap="round" stroke-linejoin="round"/>
</svg>
