<svg xmlns="http://www.w3.org/2000/svg" width="20" height="20" viewBox="0 0 20 20" fill="none">
  <path d="M10 11.25C10.6213 11.25 11.125 10.7463 11.125 10.125C11.125 9.50368 10.6213 9 10 9C9.37868 9 8.875 9.50368 8.875 10.125C8.875 10.7463 9.37868 11.25 10 11.25Z" fill="#121212"/>
  <path d="M17.875 11.25C18.4963 11.25 19 10.7463 19 10.125C19 9.50368 18.4963 9 17.875 9C17.2537 9 16.75 9.50368 16.75 10.125C16.75 10.7463 17.2537 11.25 17.875 11.25Z" fill="#121212"/>
  <path d="M2.125 11.25C2.74632 11.25 3.25 10.7463 3.25 10.125C3.25 9.50368 2.74632 9 2.125 9C1.50368 9 1 9.50368 1 10.125C1 10.7463 1.50368 11.25 2.125 11.25Z" fill="#121212"/>
  <path d="M10 11.25C10.6213 11.25 11.125 10.7463 11.125 10.125C11.125 9.50368 10.6213 9 10 9C9.37868 9 8.875 9.50368 8.875 10.125C8.875 10.7463 9.37868 11.25 10 11.25Z" stroke="#121212" stroke-width="1.5" stroke-linecap="round" stroke-linejoin="round"/>
  <path d="M17.875 11.25C18.4963 11.25 19 10.7463 19 10.125C19 9.50368 18.4963 9 17.875 9C17.2537 9 16.75 9.50368 16.75 10.125C16.75 10.7463 17.2537 11.25 17.875 11.25Z" stroke="#121212" stroke-width="1.5" stroke-linecap="round" stroke-linejoin="round"/>
  <path d="M2.125 11.25C2.74632 11.25 3.25 10.7463 3.25 10.125C3.25 9.50368 2.74632 9 2.125 9C1.50368 9 1 9.50368 1 10.125C1 10.7463 1.50368 11.25 2.125 11.25Z" stroke="#121212" stroke-width="1.5" stroke-linecap="round" stroke-linejoin="round"/>
</svg>