<svg xmlns="http://www.w3.org/2000/svg" width="22" height="22" viewBox="0 0 22 22" fill="none">
  <g clip-path="url(#clip0_2848_5464)">
    <path d="M6.77778 16.5516H15.2222M9.96312 1.52477L2.80402 7.09296C2.32547 7.46517 2.08619 7.65128 1.91381 7.88435C1.76111 8.0908 1.64736 8.32338 1.57814 8.57066C1.5 8.84982 1.5 9.15295 1.5 9.75922V17.3961C1.5 18.5784 1.5 19.1696 1.7301 19.6212C1.9325 20.0184 2.25546 20.3414 2.65269 20.5438C3.10428 20.7739 3.69544 20.7739 4.87778 20.7739H17.1222C18.3046 20.7739 18.8957 20.7739 19.3473 20.5438C19.7445 20.3414 20.0675 20.0184 20.2699 19.6212C20.5 19.1696 20.5 18.5784 20.5 17.3961V9.75922C20.5 9.15295 20.5 8.84982 20.4219 8.57066C20.3526 8.32338 20.2389 8.0908 20.0862 7.88435C19.9138 7.65128 19.6745 7.46517 19.196 7.09296L12.0369 1.52477C11.666 1.23634 11.4806 1.09212 11.2759 1.03669C11.0952 0.987771 10.9048 0.987771 10.7241 1.03669C10.5194 1.09212 10.334 1.23634 9.96312 1.52477Z" stroke="#363636" stroke-width="1.3" stroke-linecap="square" stroke-linejoin="round"/>
  </g>
  <defs>
    <clipPath id="clip0_2848_5464">
      <rect width="22" height="22" fill="white"/>
    </clipPath>
  </defs>
</svg>