<svg width="26" height="27" viewBox="0 0 26 27" fill="none" xmlns="http://www.w3.org/2000/svg">
  <rect y="0.888672" width="26" height="26" rx="7.15" fill="url(#paint0_linear_2674_7553)" fill-opacity="0.85"/>
  <path d="M12.9969 6.96033C15.2536 6.96033 15.5185 6.97039 16.4105 7.01063C17.2354 7.04751 17.6813 7.18499 17.9798 7.30235C18.3754 7.4566 18.6571 7.63767 18.9522 7.93275C19.2473 8.22783 19.4317 8.50949 19.5826 8.90517C19.6966 9.2036 19.8374 9.64957 19.8743 10.4745C19.9145 11.3664 19.9246 11.6313 19.9246 13.888C19.9246 16.1447 19.9145 16.4096 19.8743 17.3015C19.8374 18.1264 19.6999 18.5724 19.5826 18.8708C19.4283 19.2665 19.2473 19.5481 18.9522 19.8432C18.6571 20.1383 18.3754 20.3227 17.9798 20.4736C17.6813 20.5876 17.2354 20.7284 16.4105 20.7653C15.5185 20.8056 15.2536 20.8156 12.9969 20.8156C10.7403 20.8156 10.4754 20.8056 9.58341 20.7653C8.75853 20.7284 8.31255 20.591 8.01412 20.4736C7.61845 20.3194 7.33678 20.1383 7.0417 19.8432C6.74662 19.5481 6.5622 19.2665 6.4113 18.8708C6.2973 18.5724 6.15646 18.1264 6.11958 17.3015C6.07934 16.4096 6.06928 16.1447 6.06928 13.888C6.06928 11.6313 6.07934 11.3664 6.11958 10.4745C6.15646 9.64957 6.29394 9.2036 6.4113 8.90517C6.56555 8.50949 6.74662 8.22783 7.0417 7.93275C7.33678 7.63767 7.61845 7.45324 8.01412 7.30235C8.31255 7.18834 8.75853 7.04751 9.58341 7.01063C10.4754 6.96703 10.7436 6.96033 12.9969 6.96033ZM12.9969 5.43799C10.7034 5.43799 10.415 5.44805 9.51299 5.48829C8.61434 5.52852 8.00071 5.67271 7.4642 5.88061C6.90757 6.09521 6.43813 6.38694 5.96869 6.85638C5.49924 7.32582 5.21087 7.79862 4.99291 8.35189C4.78502 8.8884 4.64083 9.50203 4.60059 10.404C4.56035 11.3027 4.55029 11.5911 4.55029 13.8846C4.55029 16.1782 4.56035 16.4666 4.60059 17.3686C4.64083 18.2672 4.78502 18.8808 4.99291 19.4207C5.20752 19.9773 5.49924 20.4468 5.96869 20.9162C6.43813 21.3857 6.91093 21.674 7.4642 21.892C8.00071 22.0999 8.61434 22.2441 9.51634 22.2843C10.4183 22.3246 10.7034 22.3346 13.0003 22.3346C15.2972 22.3346 15.5822 22.3246 16.4842 22.2843C17.3829 22.2441 17.9965 22.0999 18.5364 21.892C19.093 21.6774 19.5625 21.3857 20.0319 20.9162C20.5013 20.4468 20.7897 19.974 21.0077 19.4207C21.2156 18.8842 21.3598 18.2706 21.4 17.3686C21.4402 16.4666 21.4503 16.1815 21.4503 13.8846C21.4503 11.5877 21.4402 11.3027 21.4 10.4007C21.3598 9.50203 21.2156 8.8884 21.0077 8.34854C20.7931 7.79191 20.5013 7.32247 20.0319 6.85303C19.5625 6.38358 19.0897 6.09521 18.5364 5.87725C17.9999 5.66936 17.3862 5.52517 16.4842 5.48493C15.5789 5.44805 15.2905 5.43799 12.9969 5.43799Z" fill="white"/>
  <path d="M12.9972 9.55127C10.603 9.55127 8.6582 11.4928 8.6582 13.8903C8.6582 16.2878 10.5997 18.2293 12.9972 18.2293C15.3947 18.2293 17.3362 16.2878 17.3362 13.8903C17.3362 11.4928 15.3947 9.55127 12.9972 9.55127ZM12.9972 16.7036C11.4413 16.7036 10.1805 15.4428 10.1805 13.8869C10.1805 12.331 11.4413 11.0703 12.9972 11.0703C14.5531 11.0703 15.8139 12.331 15.8139 13.8869C15.8139 15.4428 14.5531 16.7036 12.9972 16.7036Z" fill="white"/>
  <path d="M17.5068 10.3857C18.0661 10.3857 18.5195 9.93228 18.5195 9.37301C18.5195 8.81373 18.0661 8.36035 17.5068 8.36035C16.9475 8.36035 16.4941 8.81373 16.4941 9.37301C16.4941 9.93228 16.9475 10.3857 17.5068 10.3857Z" fill="white"/>
  <defs>
    <linearGradient id="paint0_linear_2674_7553" x1="30.875" y1="53.7012" x2="-21.0922" y2="30.6497" gradientUnits="userSpaceOnUse">
      <stop offset="0.24392" stop-color="#FF1B90"/>
      <stop offset="0.436673" stop-color="#F80261"/>
      <stop offset="0.688476" stop-color="#ED00C0"/>
      <stop offset="0.776787" stop-color="#C500E9"/>
      <stop offset="0.893155" stop-color="#7017FF"/>
    </linearGradient>
  </defs>
</svg>
