<svg width="171" height="15" viewBox="0 0 171 15" fill="none" xmlns="http://www.w3.org/2000/svg">
<path d="M9.33195 3.68529V2.53729H1.00195V1.20729H10.858V3.61529C10.858 4.34329 10.774 5.12729 10.648 5.68729H9.14995C9.27595 5.12729 9.33195 4.35729 9.33195 3.68529ZM0.245953 7.88529V6.56929H4.10995V3.97929H5.63595V6.56929H11.684V7.88529H0.245953ZM0.847953 11.6373C0.847953 10.7973 1.28195 10.2233 1.99595 9.83129C2.93395 9.32729 4.34795 9.13129 5.98595 9.13129C7.60995 9.13129 9.03795 9.32729 9.97595 9.83129C10.69 10.2233 11.11 10.7973 11.11 11.6373C11.11 12.4773 10.69 13.0513 9.97595 13.4293C9.03795 13.9333 7.60995 14.1153 5.98595 14.1153C4.34795 14.1153 2.93395 13.9333 1.99595 13.4293C1.28195 13.0513 0.847953 12.4773 0.847953 11.6373ZM2.37395 11.6373C2.37395 11.9453 2.54195 12.1833 2.84995 12.3653C3.43795 12.7153 4.51595 12.8413 5.98595 12.8413C7.44195 12.8413 8.51995 12.7153 9.10795 12.3653C9.41595 12.1833 9.59795 11.9453 9.59795 11.6373C9.59795 11.3153 9.41595 11.0773 9.10795 10.8953C8.51995 10.5593 7.44195 10.4193 5.98595 10.4193C4.51595 10.4193 3.43795 10.5593 2.84995 10.8953C2.54195 11.0773 2.37395 11.3153 2.37395 11.6373ZM18.5154 2.53729H13.9374V1.20729H20.0414V2.11729C20.0414 6.23329 17.7314 8.29129 13.6434 8.76729V7.45129C16.8074 7.03129 18.5154 5.30929 18.5154 2.53729ZM24.0314 1.05329V4.51129H25.8794V5.85529H24.0314V9.94329H22.5054V1.05329H24.0314ZM16.1774 9.49529V12.4913H24.2694V13.8073H14.6654V9.49529H16.1774ZM41.8951 3.48929H37.6811C37.9471 5.37929 39.9071 6.42929 42.0211 6.77929V8.10929C39.7671 7.77329 37.9191 6.90529 36.9111 5.50529C35.9031 6.90529 33.9991 7.77329 31.7871 8.10929V6.77929C33.8731 6.42929 35.8331 5.37929 36.1131 3.48929H31.9411V2.14529H36.1411V0.605292H37.6531V2.14529H41.8951V3.48929ZM31.2831 10.5873V9.25729H42.5531V10.5873H37.6531V13.9613H36.1411V10.5873H31.2831ZM45.0585 3.64329V2.32729H47.5785V0.689293H49.0905V2.32729H51.6105V3.64329H49.0905V3.83929C49.0905 6.00929 50.2665 7.01729 51.8485 7.36729V8.71129C50.3225 8.44529 49.0205 7.66129 48.3625 6.56929C47.7045 7.66129 46.3745 8.62729 44.8345 8.87929V7.53529C46.4445 7.18529 47.5785 6.05129 47.5785 3.83929V3.64329H45.0585ZM55.3205 9.97129H53.7945V5.92529H51.2885V4.62329H53.7945V1.05329H55.3205V9.97129ZM55.5445 13.8073H45.8285V9.63529H47.3545V12.4913H55.5445V13.8073ZM94.4491 7.05929C94.4491 5.04329 94.3091 3.57329 93.7771 2.90129C93.5251 2.55129 93.1331 2.36929 92.6711 2.36929C92.2231 2.36929 91.8311 2.55129 91.5651 2.90129C91.0611 3.57329 90.9071 5.04329 90.9071 7.05929C90.9071 9.07529 91.0611 10.5453 91.5651 11.2313C91.8311 11.5533 92.2231 11.7353 92.6711 11.7353C93.1331 11.7353 93.5251 11.5533 93.7771 11.2313C94.3091 10.5453 94.4491 9.07529 94.4491 7.05929ZM89.3951 7.05929C89.3951 4.76329 89.6191 3.04129 90.4311 2.04729C90.9491 1.40329 91.7331 1.05329 92.6711 1.05329C93.6231 1.05329 94.3931 1.40329 94.9251 2.04729C95.3031 2.49529 95.5411 3.11129 95.7091 3.85329H98.1591V1.05329H99.6851V13.7513H98.1591V9.95729H95.7651C95.6111 10.8393 95.3451 11.5533 94.9251 12.0713C94.3931 12.7153 93.6231 13.0373 92.6711 13.0373C91.7331 13.0373 90.9491 12.7153 90.4311 12.0713C89.6191 11.0773 89.3951 9.35529 89.3951 7.05929ZM95.8911 5.18329C95.9471 5.75729 95.9611 6.38729 95.9611 7.05929C95.9611 7.61929 95.9471 8.15129 95.9191 8.64129H98.1591V5.18329H95.8911ZM108.253 3.13929H102.583V1.90729H104.711V0.689293H106.209V1.90729H108.253V3.13929ZM104.221 6.17729C104.221 6.56929 104.389 6.90529 104.641 7.11529C104.851 7.28329 105.145 7.38129 105.439 7.38129C105.747 7.38129 106.013 7.28329 106.223 7.11529C106.489 6.90529 106.657 6.55529 106.657 6.17729C106.657 5.78529 106.489 5.46329 106.223 5.25329C106.013 5.08529 105.747 5.00129 105.439 5.00129C105.131 5.00129 104.837 5.09929 104.627 5.28129C104.375 5.49129 104.221 5.79929 104.221 6.17729ZM102.821 6.17729C102.821 5.43529 103.115 4.79129 103.661 4.37129C104.109 4.00729 104.725 3.79729 105.439 3.79729C106.125 3.79729 106.727 3.99329 107.175 4.34329C107.735 4.76329 108.057 5.40729 108.057 6.17729C108.057 7.00329 107.707 7.67529 107.091 8.09529C106.657 8.40329 106.083 8.55729 105.439 8.55729C104.781 8.55729 104.207 8.38929 103.773 8.08129C103.185 7.66129 102.821 7.00329 102.821 6.17729ZM113.335 8.78129H111.865V5.50529H110.465V8.55729H109.023V1.13729H110.465V4.17529H111.865V1.05329H113.335V8.78129ZM103.493 11.6653C103.493 10.8953 103.871 10.3633 104.529 9.98529C105.439 9.46729 106.881 9.27129 108.547 9.27129C110.199 9.27129 111.655 9.46729 112.565 9.98529C113.209 10.3633 113.587 10.8953 113.587 11.6653C113.587 12.4213 113.209 12.9673 112.565 13.3453C111.655 13.8633 110.199 14.0453 108.547 14.0453C106.881 14.0453 105.439 13.8633 104.529 13.3453C103.871 12.9673 103.493 12.4213 103.493 11.6653ZM105.005 11.6653C105.005 11.9313 105.173 12.1413 105.467 12.3093C106.055 12.6313 107.161 12.7713 108.547 12.7713C109.933 12.7713 111.039 12.6313 111.613 12.3093C111.907 12.1413 112.075 11.9313 112.075 11.6653C112.075 11.3993 111.907 11.1893 111.613 11.0073C111.039 10.6853 109.933 10.5593 108.547 10.5593C107.161 10.5593 106.055 10.6853 105.467 11.0073C105.173 11.1893 105.005 11.3993 105.005 11.6653ZM120.236 4.02129C120.236 2.98529 120.67 2.18729 121.384 1.64129C121.944 1.20729 122.714 0.969293 123.568 0.969293C124.436 0.969293 125.192 1.20729 125.766 1.64129C126.466 2.18729 126.9 2.98529 126.9 4.02129C126.9 5.05729 126.466 5.88329 125.766 6.40129C125.192 6.83529 124.436 7.07329 123.568 7.07329C122.714 7.07329 121.944 6.83529 121.384 6.40129C120.67 5.88329 120.236 5.05729 120.236 4.02129ZM121.72 4.02129C121.72 4.60929 121.944 5.07129 122.308 5.39329C122.63 5.65929 123.064 5.82729 123.568 5.82729C124.072 5.82729 124.52 5.65929 124.842 5.39329C125.192 5.07129 125.416 4.60929 125.416 4.02129C125.416 3.44729 125.192 2.98529 124.842 2.67729C124.52 2.39729 124.072 2.24329 123.568 2.24329C123.064 2.24329 122.63 2.39729 122.308 2.67729C121.944 2.98529 121.72 3.44729 121.72 4.02129ZM130.666 7.18529H129.14V1.05329H130.666V7.18529ZM122.7 11.5393V12.6453H130.82V13.8773H121.174V10.3353H129.14V9.20129H121.174V7.98329H130.666V11.5393H122.7ZM133.844 2.52329V1.20729H140.396V2.52329H137.876V2.99929C137.876 5.15529 139.052 6.17729 140.634 6.52729V7.87129C139.108 7.60529 137.806 6.80729 137.148 5.72929C136.49 6.82129 135.16 7.78729 133.62 8.03929V6.68129C135.23 6.33129 136.364 5.19729 136.364 2.99929V2.52329H133.844ZM144.106 8.29129H142.58V5.04329H139.962V3.74129H142.58V1.05329H144.106V8.29129ZM139.416 14.0453C137.96 14.0453 136.518 13.8493 135.552 13.2473C134.88 12.8273 134.446 12.1973 134.446 11.3433C134.446 10.4893 134.88 9.85929 135.552 9.43929C136.518 8.85129 137.96 8.64129 139.416 8.64129C140.872 8.64129 142.328 8.85129 143.28 9.43929C143.952 9.85929 144.4 10.4893 144.4 11.3433C144.4 12.1973 143.952 12.8273 143.28 13.2473C142.328 13.8493 140.872 14.0453 139.416 14.0453ZM139.416 9.94329C138.268 9.94329 137.148 10.0833 136.504 10.4753C136.168 10.6993 135.958 10.9793 135.958 11.3433C135.958 11.7073 136.168 11.9873 136.504 12.1973C137.148 12.5893 138.268 12.7433 139.416 12.7433C140.578 12.7433 141.698 12.5893 142.328 12.1973C142.664 11.9873 142.874 11.7073 142.874 11.3433C142.874 10.9793 142.664 10.6993 142.328 10.4753C141.698 10.0833 140.578 9.94329 139.416 9.94329Z" fill="#FF5570"/>
<path d="M60.346 3.13929H67.248V1.20729H68.774V7.71729H58.82V1.20729H60.346V3.13929ZM67.248 6.41529V4.44129H60.346V6.41529H67.248ZM58.162 10.6293V9.29929H69.432V10.6293H64.532V13.9613H63.02V10.6293H58.162ZM76.8234 12.8973H72.0354V1.27729H78.1254V2.62129H73.5474V6.35929H77.5934V7.68929H73.5474V11.5673H76.8934C77.8454 11.5673 78.7134 11.4973 79.3574 11.2733V12.5333C78.7274 12.7853 77.8034 12.8973 76.8234 12.8973ZM82.1714 1.05329V13.7513H80.6454V7.49329H78.2514V6.16329H80.6454V1.05329H82.1714ZM157.391 1.05329V6.23329H159.211V7.56329H157.391V13.7513H155.865V1.05329H157.391ZM154.143 1.27729V7.26929C154.143 10.6573 153.093 12.4213 150.573 13.3873V11.9873C151.959 11.3013 152.645 9.97129 152.645 7.18529V2.62129H150.741V6.58329C150.741 9.98529 149.607 11.7353 147.073 12.6733V11.2733C148.473 10.6013 149.243 9.29929 149.243 6.48529V2.62129H147.157V1.27729H154.143ZM160.667 2.62129V1.27729H167.555V2.62129H164.867V6.03729C164.867 9.42529 166.197 10.7973 167.667 11.4973V12.8973C166.085 12.3513 164.713 11.1193 164.097 9.77529C163.481 11.1193 162.095 12.3653 160.527 12.8973V11.4973C161.969 10.8113 163.327 9.42529 163.327 6.03729V2.62129H160.667ZM170.957 1.05329V13.7513H169.431V1.05329H170.957Z" fill="#121212"/>
</svg>
