<svg width="345" height="52" viewBox="0 0 345 52" fill="none" xmlns="http://www.w3.org/2000/svg">
<rect width="345" height="52" rx="6" fill="#FFE812"/>
<g clip-path="url(#clip0_1733_20443)">
<path d="M109.997 19C105.857 19 102.5 21.6634 102.5 24.9503C102.5 27.0754 103.903 28.9369 106.015 29.9938L105.254 32.7281C105.254 32.7281 105.24 32.8556 105.322 32.9038C105.404 32.9519 105.502 32.9151 105.502 32.9151C105.739 32.8811 108.234 31.1159 108.671 30.8098C109.102 30.8722 109.549 30.9034 110.003 30.9034C114.143 30.9034 117.5 28.2399 117.5 24.9531C117.5 21.6663 114.137 19 109.997 19Z" fill="black"/>
</g>
<path d="M135.602 20.1562C135.602 24.4219 134.43 28.0781 129.227 30.6719L128.273 29.3594C130.719 28.1484 132.172 26.7422 132.992 25.0625L128.602 25.4844L128.383 23.9844L133.523 23.6562C133.703 23 133.812 22.3047 133.867 21.5625H129.117V20.1562H135.602ZM139.32 18.7656V24.2969H141.414V25.7188H139.32V32.8594H137.586V18.7656H139.32ZM149.43 20.1562C149.43 24.4219 148.258 28.0781 143.055 30.6719L142.102 29.3594C144.547 28.1484 146 26.7422 146.82 25.0625L142.43 25.4844L142.211 23.9844L147.352 23.6562C147.531 23 147.641 22.3047 147.695 21.5625H142.945V20.1562H149.43ZM153.148 18.7656V24.2969H155.242V25.7188H153.148V32.8594H151.414V18.7656H153.148ZM162.336 19.5625C165.367 19.5625 167.602 21.0781 167.602 23.375C167.602 25.4922 165.781 26.9062 163.195 27.1562V29.75H168.82V31.1719H155.914V29.75H161.477V27.1562C158.906 26.9062 157.086 25.4922 157.102 23.375C157.086 21.0781 159.32 19.5625 162.336 19.5625ZM162.336 20.9688C160.273 20.9531 158.789 21.8906 158.805 23.375C158.789 24.9062 160.273 25.8125 162.336 25.8125C164.43 25.8125 165.898 24.9062 165.898 23.375C165.898 21.8906 164.43 20.9531 162.336 20.9688ZM182.648 29.8125V31.25H169.742V29.8125H175.305V27.5156H171.273V22.8906H179.398V21.1406H171.242V19.7344H181.117V24.2656H173.008V26.0938H181.445V27.5156H177.023V29.8125H182.648ZM192.711 22.1562C192.695 24.75 194.055 27.3438 196.352 28.3281L195.32 29.7188C193.695 28.9688 192.5 27.4688 191.852 25.625C191.203 27.6172 189.992 29.2422 188.273 30.0469L187.211 28.5938C189.57 27.5781 190.945 24.875 190.945 22.1562V19.9062H192.711V22.1562ZM199.117 18.7656V32.9062H197.367V18.7656H199.117ZM206.258 21.2188C206.258 22.9531 207.383 24.6719 209.602 25.4062L208.727 26.75C207.148 26.2266 206.023 25.1641 205.414 23.8438C204.781 25.2891 203.609 26.4375 201.961 27L201.039 25.6562C203.32 24.9062 204.508 23.0781 204.508 21.2188V21.0469H201.523V19.6562H209.195V21.0469H206.258V21.2188ZM212.336 18.7656V22.2969H214.305V23.75H212.336V27.2812H210.602V18.7656H212.336ZM212.336 27.9375V32.8906H210.602V29.3281H202.93V27.9375H212.336ZM226.086 18.7656V24.3906H228.258V25.8281H226.086V32.8906H224.367V18.7656H226.086ZM223.273 20.9375V22.3281H214.945V20.9375H218.289V18.9688H220.023V20.9375H223.273ZM219.164 23.25C221.195 23.25 222.711 24.625 222.711 26.5781C222.711 28.5312 221.195 29.8906 219.164 29.8906C217.102 29.8906 215.586 28.5312 215.602 26.5781C215.586 24.625 217.102 23.25 219.164 23.25ZM219.164 24.6719C218.055 24.6719 217.258 25.4219 217.258 26.5781C217.258 27.7344 218.055 28.4688 219.164 28.4531C220.242 28.4688 221.039 27.7344 221.055 26.5781C221.039 25.4219 220.242 24.6719 219.164 24.6719ZM240.648 18.7656V32.8906H238.898V18.7656H240.648ZM236.43 20.2656C236.43 24.4688 234.805 28.0469 229.852 30.3906L228.945 29C232.641 27.2422 234.359 24.8516 234.664 21.6406H229.664V20.2656H236.43Z" fill="#121212"/>
<defs>
<clipPath id="clip0_1733_20443">
<rect width="15" height="15" fill="white" transform="translate(102.5 18.5)"/>
</clipPath>
</defs>
</svg>
