<svg xmlns="http://www.w3.org/2000/svg" width="57" height="63" viewBox="0 0 57 63" fill="none">
  <path d="M28.5 18.749V31.749M54.5 25.7854C54.5 47.1323 38.3538 56.7027 31.5088 59.801L31.5002 59.8048C30.7803 60.1307 30.4194 60.294 29.6013 60.4345C29.0833 60.5234 27.92 60.5234 27.4019 60.4345C26.5806 60.2935 26.216 60.1295 25.4903 59.8011C18.6453 56.7028 2.5 47.1322 2.5 25.7854V12.8997C2.5 9.25932 2.5 7.43779 3.20846 6.04736C3.83163 4.82431 4.82529 3.83066 6.04834 3.20748C7.43877 2.49902 9.26029 2.49902 12.9006 2.49902H44.1006C47.741 2.49902 49.5586 2.49902 50.949 3.20748C52.1721 3.83066 53.1691 4.82431 53.7922 6.04736C54.5 7.43643 54.5 9.25575 54.5 12.889V25.7854ZM28.6619 41.499V41.824L28.3381 41.8247V41.499H28.6619Z" stroke="#FF0000" stroke-width="4.5" stroke-linecap="square" stroke-linejoin="round"/>
</svg>