<svg xmlns="http://www.w3.org/2000/svg" width="37" height="39" viewBox="0 0 37 39" fill="none">
  <path d="M14.401 17.4838C14.401 17.4838 16.5886 20.012 20.2345 20.012C23.8805 20.012 26.0681 17.4838 26.0681 17.4838M24.8181 9.05663H24.8347M15.651 9.05663H15.6677M11.9008 26.7537V30.6901C11.9008 31.5881 11.9008 32.0372 12.0829 32.2678C12.2412 32.4684 12.4813 32.5851 12.7351 32.5848C13.0269 32.5845 13.3737 32.304 14.0672 31.7429L18.0431 28.5265C18.8553 27.8695 19.2614 27.5409 19.7137 27.3073C20.1149 27.1 20.5419 26.9486 20.9833 26.857C21.4807 26.7537 22.0008 26.7537 23.0409 26.7537H27.2348C30.0352 26.7537 31.4354 26.7537 32.505 26.2026C33.4459 25.7179 34.2108 24.9443 34.6902 23.9929C35.2352 22.9113 35.2352 21.4954 35.2352 18.6636V9.56227C35.2352 6.73047 35.2352 5.31457 34.6902 4.23296C34.2108 3.28156 33.4459 2.50804 32.505 2.02327C31.4354 1.47217 30.0352 1.47217 27.2349 1.47217H13.2342C10.4339 1.47217 9.03366 1.47217 7.96405 2.02327C7.0232 2.50804 6.25827 3.28156 5.77888 4.23296C5.23389 5.31457 5.23389 6.73047 5.23389 9.56226V20.012C5.23389 21.5794 5.23389 22.3631 5.40427 23.0061C5.86662 24.751 7.21442 26.1139 8.93995 26.5814C9.57581 26.7537 10.3508 26.7537 11.9008 26.7537ZM25.6514 9.05663C25.6514 9.52205 25.2783 9.89935 24.8181 9.89935C24.3578 9.89935 23.9847 9.52205 23.9847 9.05663C23.9847 8.59121 24.3578 8.21392 24.8181 8.21392C25.2783 8.21392 25.6514 8.59121 25.6514 9.05663ZM16.4844 9.05663C16.4844 9.52205 16.1113 9.89935 15.651 9.89935C15.1908 9.89935 14.8176 9.52205 14.8176 9.05663C14.8176 8.59121 15.1908 8.21392 15.651 8.21392C16.1113 8.21392 16.4844 8.59121 16.4844 9.05663Z" stroke="url(#paint0_linear_2453_4139)" stroke-opacity="0.45" stroke-width="2.68934" stroke-linecap="round" stroke-linejoin="round"/>
  <path d="M1.26471 16.2916C1.26471 13.7502 1.26471 12.4796 1.7538 11.5089C2.18402 10.6551 2.87051 9.96088 3.71486 9.52583C4.67476 9.03125 5.93134 9.03125 8.44451 9.03125H21.0092C23.5223 9.03125 24.7789 9.03125 25.7388 9.52583C26.5832 9.96088 27.2696 10.6551 27.6999 11.5089C28.189 12.4796 28.189 13.7502 28.189 16.2916V24.4595C28.189 27.0008 28.189 28.2715 27.6999 29.2422C27.2696 30.096 26.5832 30.7902 25.7388 31.2252C24.7789 31.7198 23.5223 31.7198 21.0092 31.7198H17.2454C16.3119 31.7198 15.8452 31.7198 15.3988 31.8125C15.0027 31.8947 14.6194 32.0306 14.2594 32.2166C13.8535 32.4263 13.4891 32.7211 12.7602 33.3108L9.19204 36.1973C8.56966 36.7008 8.25847 36.9526 7.99658 36.9529C7.76882 36.9531 7.55335 36.8484 7.41126 36.6684C7.24788 36.4614 7.24788 36.0584 7.24788 35.2524V31.7198C5.85683 31.7198 5.16131 31.7198 4.59067 31.5652C3.04211 31.1456 1.83255 29.9225 1.41761 28.3566C1.26471 27.7795 1.26471 27.0762 1.26471 25.6695V16.2916Z" fill="#FFDBE1"/>
  <path d="M9.49156 23.4007C9.49156 23.4007 11.4548 25.6695 14.7268 25.6695C17.9989 25.6695 19.9621 23.4007 19.9621 23.4007" fill="#FFDBE1"/>
  <path d="M19.5882 15.8378C19.5882 16.2555 19.2533 16.5941 18.8403 16.5941C18.4272 16.5941 18.0924 16.2555 18.0924 15.8378C18.0924 15.4201 18.4272 15.0815 18.8403 15.0815C19.2533 15.0815 19.5882 15.4201 19.5882 15.8378Z" fill="#FFDBE1"/>
  <path d="M11.3613 15.8378C11.3613 16.2555 11.0265 16.5941 10.6134 16.5941C10.2004 16.5941 9.86551 16.2555 9.86551 15.8378C9.86551 15.4201 10.2004 15.0815 10.6134 15.0815C11.0265 15.0815 11.3613 15.4201 11.3613 15.8378Z" fill="#FFDBE1"/>
  <path d="M9.49156 23.4007C9.49156 23.4007 11.4548 25.6695 14.7268 25.6695C17.9989 25.6695 19.9621 23.4007 19.9621 23.4007M18.8403 15.8378H18.8552M10.6134 15.8378H10.6284M7.24788 31.7198V35.2524C7.24788 36.0584 7.24788 36.4614 7.41126 36.6684C7.55335 36.8484 7.76882 36.9531 7.99658 36.9529C8.25847 36.9526 8.56966 36.7008 9.19204 36.1973L12.7602 33.3108C13.4891 32.7211 13.8535 32.4263 14.2594 32.2166C14.6194 32.0306 15.0027 31.8947 15.3988 31.8125C15.8452 31.7198 16.3119 31.7198 17.2454 31.7198H21.0092C23.5223 31.7198 24.7789 31.7198 25.7388 31.2252C26.5832 30.7902 27.2696 30.096 27.6999 29.2422C28.189 28.2715 28.189 27.0008 28.189 24.4595V16.2916C28.189 13.7502 28.189 12.4796 27.6999 11.5089C27.2696 10.6551 26.5832 9.96088 25.7388 9.52583C24.7789 9.03125 23.5223 9.03125 21.0092 9.03125H8.44451C5.93134 9.03125 4.67476 9.03125 3.71486 9.52583C2.87051 9.96088 2.18402 10.6551 1.7538 11.5089C1.26471 12.4796 1.26471 13.7502 1.26471 16.2916V25.6695C1.26471 27.0762 1.26471 27.7795 1.41761 28.3566C1.83255 29.9225 3.04211 31.1456 4.59067 31.5652C5.16131 31.7198 5.85683 31.7198 7.24788 31.7198ZM19.5882 15.8378C19.5882 16.2555 19.2533 16.5941 18.8403 16.5941C18.4272 16.5941 18.0924 16.2555 18.0924 15.8378C18.0924 15.4201 18.4272 15.0815 18.8403 15.0815C19.2533 15.0815 19.5882 15.4201 19.5882 15.8378ZM11.3613 15.8378C11.3613 16.2555 11.0265 16.5941 10.6134 16.5941C10.2004 16.5941 9.86551 16.2555 9.86551 15.8378C9.86551 15.4201 10.2004 15.0815 10.6134 15.0815C11.0265 15.0815 11.3613 15.4201 11.3613 15.8378Z" stroke="url(#paint1_linear_2453_4139)" stroke-width="2.54779" stroke-linecap="round" stroke-linejoin="round"/>
  <defs>
    <linearGradient id="paint0_linear_2453_4139" x1="10.5701" y1="10.4656" x2="38.3691" y2="13.5653" gradientUnits="userSpaceOnUse">
      <stop stop-color="#FF5570"/>
      <stop offset="0.43" stop-color="#FF6FB4"/>
      <stop offset="1" stop-color="#FF435E"/>
    </linearGradient>
    <linearGradient id="paint1_linear_2453_4139" x1="6.0536" y1="17.1023" x2="31.0014" y2="19.884" gradientUnits="userSpaceOnUse">
      <stop stop-color="#FF5570"/>
      <stop offset="0.43" stop-color="#FF6FB4"/>
      <stop offset="1" stop-color="#FF435E"/>
    </linearGradient>
  </defs>
</svg>