<svg xmlns="http://www.w3.org/2000/svg" width="33" height="23" viewBox="0 0 33 23" fill="none">
  <mask id="mask0_1728_18392" style="mask-type:alpha" maskUnits="userSpaceOnUse" x="0" y="0" width="20" height="23">
    <rect x="0.35791" width="19.6348" height="22.387" fill="#D9D9D9"/>
  </mask>
  <g mask="url(#mask0_1728_18392)">
    <path fill-rule="evenodd" clip-rule="evenodd" d="M19.9886 -0.00488281H1.73249C0.971175 -0.00488281 0.354004 0.61229 0.354004 1.37361V1.51517C0.58501 3.22122 0.753649 5.68615 0.820754 8.52861C2.12846 8.75226 3.12439 9.9024 3.12439 11.2876C3.12439 12.6729 2.1284 13.8231 0.820639 14.0467C0.753531 16.884 0.585247 19.3448 0.354759 21.0497C0.379057 21.7897 0.986586 22.3821 1.73249 22.3821H19.9886V-0.00488281ZM57.9995 22.3821H73.7386C74.4736 22.3821 75.0742 21.8069 75.1149 21.0821C74.883 19.3821 74.7134 16.9196 74.6453 14.0772C73.2196 13.9631 72.0978 12.7578 72.0978 11.2876C72.0978 9.81752 73.2196 8.61218 74.6452 8.49809C74.7134 5.64462 74.8839 3.17372 75.1171 1.47228V1.37361C75.1171 0.612288 74.4999 -0.00488281 73.7386 -0.00488281H57.9995V22.3821Z" fill="#FF5570"/>
  </g>
  <mask id="mask1_1728_18392" style="mask-type:alpha" maskUnits="userSpaceOnUse" x="15" y="0" width="18" height="23">
    <rect x="15.5247" width="17.1175" height="22.387" fill="#D9D9D9"/>
  </mask>
  <g mask="url(#mask1_1728_18392)">
    <path fill-rule="evenodd" clip-rule="evenodd" d="M-22.4844 -0.00488281H-40.7397C-41.501 -0.00488281 -42.1182 0.61229 -42.1182 1.37361V1.47512C-41.8843 3.1828 -41.7135 5.66463 -41.6459 8.53C-40.3422 8.75698 -39.3503 9.90525 -39.3503 11.2876C-39.3503 12.6701 -40.3422 13.8183 -41.646 14.0453C-41.7135 16.9001 -41.8834 19.3738 -42.1161 21.0801C-42.0764 21.8058 -41.4753 22.3821 -40.7397 22.3821H-22.4844V-0.00488281ZM15.5265 22.3821H31.2664C32.0058 22.3821 32.6093 21.7999 32.6434 21.069C32.4124 19.3696 32.2435 16.9126 32.1756 14.0777C30.7469 13.9667 29.6218 12.76 29.6218 11.2876C29.6218 9.81533 30.7468 8.6086 32.1755 8.49759C32.2435 5.65433 32.413 3.19094 32.6449 1.4902V1.37361C32.6449 0.612288 32.0278 -0.00488281 31.2664 -0.00488281H15.5265V22.3821Z" fill="#FF5570"/>
  </g>
  <text x="50%" y="50%" dominant-baseline="middle" text-anchor="middle" fill="#FFF" font-family="Pretendard" font-size="14px" font-style="normal" font-weight="900" letter-spacing="-0.7px" line-height="62.638px">1</text>
</svg>
