<svg width="26" height="27" viewBox="0 0 26 27" fill="none" xmlns="http://www.w3.org/2000/svg">
  <rect y="0.888672" width="26" height="26" rx="7.15" fill="url(#paint0_linear_2674_7528)" fill-opacity="0.92"/>
  <path d="M19.1817 6.09961H6.73266C4.97067 6.09961 3.53564 7.54069 3.53564 9.29663V17.0349C3.53564 18.7969 4.97673 20.2319 6.73266 20.2319H11.1286L11.8854 21.5398L12.6302 22.8295C12.7634 23.0656 13.1025 23.0656 13.2417 22.8295L13.9865 21.5398L14.7434 20.2319H19.1877C20.9497 20.2319 22.3847 18.7908 22.3847 17.0349V9.30268C22.3847 7.54069 20.9437 6.09961 19.1817 6.09961Z" fill="white"/>
  <path d="M13.8298 11.7715C12.867 11.7715 12.0859 12.5405 12.0859 13.4911C12.0859 14.4417 12.867 15.2107 13.8298 15.2107C14.7925 15.2107 15.5736 14.4417 15.5736 13.4911C15.5736 12.5405 14.7986 11.7715 13.8298 11.7715ZM13.8298 14.3146C13.3696 14.3146 12.9942 13.9452 12.9942 13.4911C12.9942 13.037 13.3696 12.6676 13.8298 12.6676C14.2899 12.6676 14.6653 13.037 14.6653 13.4911C14.6653 13.9452 14.296 14.3146 13.8298 14.3146Z" fill="url(#paint1_linear_2674_7528)" fill-opacity="0.92"/>
  <path d="M13.8298 11.7354C12.8476 11.7354 12.0498 12.52 12.0498 13.4911C12.0498 14.4622 12.8476 15.2468 13.8298 15.2468C14.812 15.2468 15.6097 14.4622 15.6097 13.4911C15.6097 12.5201 14.8181 11.7354 13.8298 11.7354ZM13.8298 14.2785C13.389 14.2785 13.0303 13.9248 13.0303 13.4911C13.0303 13.0574 13.389 12.7037 13.8298 12.7037C14.2705 12.7037 14.6292 13.0574 14.6292 13.4911C14.6292 13.9249 14.2764 14.2785 13.8298 14.2785Z" stroke="url(#paint2_linear_2674_7528)" stroke-opacity="0.92" stroke-width="0.0722222"/>
  <path d="M8.31357 11.7715C7.93816 11.7715 7.58697 11.9169 7.3145 12.1651V10.7422H6.3457V15.132H7.3145V14.8232C7.58697 15.0654 7.9321 15.2168 8.31357 15.2168C9.17942 15.2168 9.8818 14.4478 9.8818 13.4972C9.8818 12.5466 9.18548 11.7715 8.31357 11.7715ZM8.11981 14.351C7.76256 14.351 7.45376 14.139 7.32055 13.8302C7.27817 13.7273 7.24789 13.6122 7.24789 13.4911C7.24789 13.37 7.27211 13.255 7.32055 13.1521C7.45376 12.8433 7.76256 12.6313 8.11981 12.6313C8.6042 12.6313 8.99172 13.0128 8.99172 13.4911C8.99172 13.9695 8.6042 14.351 8.11981 14.351Z" fill="url(#paint3_linear_2674_7528)" fill-opacity="0.92"/>
  <path d="M7.35061 15.132V14.9013C7.61887 15.1187 7.94983 15.2529 8.31357 15.2529C9.20241 15.2529 9.91791 14.4646 9.91791 13.4972C9.91791 12.5301 9.20871 11.7354 8.31357 11.7354C7.9559 11.7354 7.61999 11.8641 7.35061 12.086V10.7422V10.7061H7.3145H6.3457H6.30959V10.7422V15.132V15.1682H6.3457H7.3145H7.35061V15.132ZM7.35323 13.1674L7.35324 13.1675L7.35371 13.1664C7.48126 12.8707 7.77712 12.6675 8.11981 12.6675C8.58476 12.6675 8.95561 13.0332 8.95561 13.4911C8.95561 13.9491 8.58476 14.3148 8.11981 14.3148C7.77723 14.3148 7.48145 14.1117 7.35383 13.8162C7.31275 13.7164 7.284 13.6062 7.284 13.4911C7.284 13.3749 7.30725 13.2651 7.35323 13.1674Z" stroke="url(#paint4_linear_2674_7528)" stroke-opacity="0.92" stroke-width="0.0722222"/>
  <path d="M18.5952 11.843V12.1154C18.3228 11.9035 17.9837 11.7764 17.6204 11.7764C16.7303 11.7764 16.0098 12.5211 16.0098 13.4354C16.0098 14.3497 16.7303 15.0945 17.6204 15.0945C17.9897 15.0945 18.3288 14.9673 18.5952 14.7554V15.2156C18.5952 15.2156 18.4984 15.6697 17.8202 15.6697V16.5235C17.8202 16.5235 18.5528 16.6082 19.2068 15.9543C19.2068 15.9543 19.5095 15.6334 19.5761 15.2095V11.843H18.5952ZM17.802 14.2771C17.3116 14.2771 16.918 13.8956 16.918 13.4294C16.918 12.9631 17.3176 12.5817 17.802 12.5817C18.1472 12.5817 18.4499 12.7754 18.5952 13.054C18.6558 13.169 18.6861 13.2962 18.6861 13.4294C18.6861 13.5626 18.6497 13.6958 18.5952 13.8048C18.4499 14.0894 18.1472 14.2771 17.802 14.2771Z" fill="url(#paint5_linear_2674_7528)" fill-opacity="0.92"/>
  <path d="M18.5952 11.8069H18.5591V11.843V12.0436C18.2913 11.8532 17.9667 11.7403 17.6204 11.7403C16.7093 11.7403 15.9737 12.5022 15.9737 13.4354C15.9737 14.3686 16.7093 15.1306 17.6204 15.1306C17.9716 15.1306 18.2962 15.0182 18.5591 14.8281V15.2112L18.5591 15.2115C18.5583 15.2142 18.5571 15.2185 18.5554 15.2241C18.5518 15.2353 18.5459 15.2516 18.5367 15.2714C18.5184 15.311 18.4872 15.3643 18.436 15.4176C18.3344 15.5235 18.1503 15.6336 17.8202 15.6336H17.7841V15.6697V16.5235V16.5556L17.816 16.5593L17.8202 16.5235L17.8161 16.5593L17.8162 16.5593L17.8163 16.5594L17.8169 16.5594L17.8187 16.5596L17.8256 16.5602C17.8315 16.5607 17.8401 16.5613 17.8512 16.5619C17.8734 16.563 17.9055 16.5637 17.9459 16.5626C18.0268 16.5603 18.1412 16.5502 18.2763 16.5193C18.5467 16.4575 18.8998 16.3124 19.2323 15.9798L19.2323 15.9798L19.2331 15.9791L19.2068 15.9543L19.2331 15.9791L19.2331 15.979L19.2332 15.979L19.2334 15.9787L19.2341 15.9779L19.2369 15.9749L19.2471 15.9635C19.2558 15.9535 19.2682 15.9389 19.2833 15.9201C19.3134 15.8825 19.3542 15.8281 19.397 15.7601C19.4825 15.6245 19.5775 15.4336 19.6118 15.2151L19.6122 15.2152V15.2095V11.843V11.8069H19.5761H18.5952ZM18.5632 13.0707L18.5633 13.0708C18.621 13.1804 18.6499 13.3017 18.6499 13.4294C18.6499 13.5563 18.6153 13.6839 18.563 13.7885C18.424 14.0606 18.134 14.241 17.802 14.241C17.3302 14.241 16.9541 13.8744 16.9541 13.4294C16.9541 12.9845 17.3361 12.6178 17.802 12.6178C18.1336 12.6178 18.4241 12.804 18.5632 13.0707Z" stroke="url(#paint6_linear_2674_7528)" stroke-opacity="0.92" stroke-width="0.0722222"/>
  <path d="M9.99072 10.6577V11.5357C9.99072 11.5357 10.4388 11.5963 10.5236 12.0322V15.1323H11.5226V12.0322V12.008C11.4621 11.572 11.2017 11.2451 11.2017 11.2451C10.6325 10.573 9.99072 10.6577 9.99072 10.6577Z" fill="url(#paint7_linear_2674_7528)" fill-opacity="0.92"/>
  <path d="M9.99072 10.6577L9.98599 10.6219L9.95461 10.6261V10.6577V11.5357V11.5673L9.98584 11.5715L9.98584 11.5715L9.98586 11.5715L9.98589 11.5715L9.98595 11.5715L9.98664 11.5716L9.98984 11.5721L10.003 11.5746C10.0146 11.5769 10.0314 11.5807 10.0521 11.5867C10.0934 11.5986 10.1493 11.6188 10.2075 11.6519C10.323 11.7175 10.4469 11.8329 10.4874 12.0357V15.1323V15.1685H10.5236H11.5226H11.5587V15.1323V12.0322V12.008H11.5591L11.5584 12.003C11.5274 11.7795 11.4452 11.5846 11.3713 11.4461C11.3343 11.3766 11.2992 11.3211 11.2732 11.2827C11.2603 11.2636 11.2496 11.2487 11.2421 11.2385L11.2333 11.2268L11.2309 11.2238L11.2302 11.2229L11.2301 11.2227L11.23 11.2226L11.23 11.2226L11.2017 11.2451L11.23 11.2226L11.2293 11.2217C10.9395 10.8796 10.6302 10.7291 10.3922 10.6645C10.2734 10.6323 10.1726 10.6215 10.1012 10.6189C10.0655 10.6176 10.0371 10.6183 10.0175 10.6193C10.0076 10.6199 9.99998 10.6205 9.99468 10.621L9.98851 10.6216L9.98679 10.6218L9.98627 10.6219L9.9861 10.6219L9.98604 10.6219L9.99072 10.6577Z" stroke="url(#paint8_linear_2674_7528)" stroke-opacity="0.92" stroke-width="0.0722222"/>
  <defs>
    <linearGradient id="paint0_linear_2674_7528" x1="1.89583" y1="-57.0697" x2="47.0446" y2="-55.2384" gradientUnits="userSpaceOnUse">
      <stop stop-color="#19F876"/>
      <stop offset="0.253195" stop-color="#03EB64"/>
      <stop offset="0.932752" stop-color="#27FCE3"/>
    </linearGradient>
    <linearGradient id="paint1_linear_2674_7528" x1="12.3402" y1="4.10489" x2="18.3963" y2="4.35398" gradientUnits="userSpaceOnUse">
      <stop stop-color="#19F876"/>
      <stop offset="0.253195" stop-color="#03EB64"/>
      <stop offset="0.932752" stop-color="#27FCE3"/>
    </linearGradient>
    <linearGradient id="paint2_linear_2674_7528" x1="12.3402" y1="4.10489" x2="18.3963" y2="4.35398" gradientUnits="userSpaceOnUse">
      <stop stop-color="#19F876"/>
      <stop offset="0.253195" stop-color="#03EB64"/>
      <stop offset="0.932752" stop-color="#27FCE3"/>
    </linearGradient>
    <linearGradient id="paint3_linear_2674_7528" x1="6.60354" y1="0.767498" x2="12.7477" y2="0.964437" gradientUnits="userSpaceOnUse">
      <stop stop-color="#19F876"/>
      <stop offset="0.253195" stop-color="#03EB64"/>
      <stop offset="0.932752" stop-color="#27FCE3"/>
    </linearGradient>
    <linearGradient id="paint4_linear_2674_7528" x1="6.60354" y1="0.767498" x2="12.7477" y2="0.964437" gradientUnits="userSpaceOnUse">
      <stop stop-color="#19F876"/>
      <stop offset="0.253195" stop-color="#03EB64"/>
      <stop offset="0.932752" stop-color="#27FCE3"/>
    </linearGradient>
    <linearGradient id="paint5_linear_2674_7528" x1="16.2698" y1="1.1863" x2="22.4672" y2="1.37501" gradientUnits="userSpaceOnUse">
      <stop stop-color="#19F876"/>
      <stop offset="0.253195" stop-color="#03EB64"/>
      <stop offset="0.932752" stop-color="#27FCE3"/>
    </linearGradient>
    <linearGradient id="paint6_linear_2674_7528" x1="16.2698" y1="1.1863" x2="22.4672" y2="1.37501" gradientUnits="userSpaceOnUse">
      <stop stop-color="#19F876"/>
      <stop offset="0.253195" stop-color="#03EB64"/>
      <stop offset="0.932752" stop-color="#27FCE3"/>
    </linearGradient>
    <linearGradient id="paint7_linear_2674_7528" x1="10.1024" y1="0.671986" x2="12.7664" y2="0.70895" gradientUnits="userSpaceOnUse">
      <stop stop-color="#19F876"/>
      <stop offset="0.253195" stop-color="#03EB64"/>
      <stop offset="0.932752" stop-color="#27FCE3"/>
    </linearGradient>
    <linearGradient id="paint8_linear_2674_7528" x1="10.1024" y1="0.671986" x2="12.7664" y2="0.70895" gradientUnits="userSpaceOnUse">
      <stop stop-color="#19F876"/>
      <stop offset="0.253195" stop-color="#03EB64"/>
      <stop offset="0.932752" stop-color="#27FCE3"/>
    </linearGradient>
  </defs>
</svg>
