<svg xmlns="http://www.w3.org/2000/svg" width="55" height="52" viewBox="0 0 55 52" fill="none">
  <path d="M27.6943 4.62631C24.6112 4.62631 21.6543 5.85108 19.4742 8.03119C17.2941 10.2113 16.0693 13.1682 16.0693 16.2513C16.0693 16.7652 15.8652 17.258 15.5018 17.6213C15.1385 17.9847 14.6457 18.1888 14.1318 18.1888H13.1631C10.8507 18.1888 8.63305 19.1074 6.99796 20.7425C5.36288 22.3776 4.4443 24.5952 4.4443 26.9076C4.4443 29.2199 5.36288 31.4376 6.99796 33.0726C8.63305 34.7077 10.8507 35.6263 13.1631 35.6263H16.1546C16.2786 36.9593 16.5175 38.251 16.8714 39.5013H13.1631C9.89219 39.5083 6.74694 38.2424 4.39283 35.9715C2.03873 33.7007 0.660473 30.603 0.549711 27.334C0.438949 24.0651 1.60437 20.8812 3.79937 18.4562C5.99436 16.0312 9.04672 14.5554 12.3106 14.3409C12.7589 10.6943 14.4881 7.32548 17.1896 4.83536C19.8912 2.34525 23.3894 0.895754 27.0605 0.745412C30.7315 0.595071 34.3366 1.75366 37.2327 4.01453C40.1288 6.2754 42.1276 9.49154 42.8727 13.0893C41.4985 12.725 40.0913 12.4991 38.6722 12.4151C37.8763 10.1385 36.3921 8.16574 34.4252 6.77022C32.4583 5.3747 30.106 4.62546 27.6943 4.62631ZM54.8193 33.6888C54.8193 35.9787 54.3683 38.2462 53.492 40.3619C52.6156 42.4775 51.3312 44.3998 49.712 46.019C48.0928 47.6382 46.1705 48.9226 44.0548 49.799C41.9392 50.6753 39.6717 51.1263 37.3818 51.1263C35.0919 51.1263 32.8244 50.6753 30.7088 49.799C28.5931 48.9226 26.6708 47.6382 25.0516 46.019C23.4324 44.3998 22.148 42.4775 21.2717 40.3619C20.3953 38.2462 19.9443 35.9787 19.9443 33.6888C19.9443 29.0641 21.7815 24.6288 25.0516 21.3586C28.3218 18.0885 32.7571 16.2513 37.3818 16.2513C42.0065 16.2513 46.4418 18.0885 49.712 21.3586C52.9821 24.6288 54.8193 29.0641 54.8193 33.6888ZM37.3818 24.0013C36.8679 24.0013 36.3751 24.2054 36.0118 24.5688C35.6484 24.9321 35.4443 25.4249 35.4443 25.9388V33.6888C35.4443 34.2027 35.6484 34.6955 36.0118 35.0588C36.3751 35.4222 36.8679 35.6263 37.3818 35.6263C37.8957 35.6263 38.3885 35.4222 38.7518 35.0588C39.1152 34.6955 39.3193 34.2027 39.3193 33.6888V25.9388C39.3193 25.4249 39.1152 24.9321 38.7518 24.5688C38.3885 24.2054 37.8957 24.0013 37.3818 24.0013ZM37.3818 43.8607C38.0241 43.8607 38.6401 43.6055 39.0943 43.1513C39.5485 42.6971 39.8037 42.0811 39.8037 41.4388C39.8037 40.7965 39.5485 40.1805 39.0943 39.7263C38.6401 39.2721 38.0241 39.0169 37.3818 39.0169C36.7395 39.0169 36.1235 39.2721 35.6693 39.7263C35.2151 40.1805 34.9599 40.7965 34.9599 41.4388C34.9599 42.0811 35.2151 42.6971 35.6693 43.1513C36.1235 43.6055 36.7395 43.8607 37.3818 43.8607Z" fill="#C1C1C1"/>
</svg>