<svg xmlns="http://www.w3.org/2000/svg" width="21" height="21" viewBox="0 0 21 21" fill="none">
  <path d="M12.439 20H8.43904M16.439 7C16.439 5.4087 15.8069 3.88258 14.6817 2.75736C13.5565 1.63214 12.0303 1 10.439 1C8.84775 1 7.32162 1.63214 6.1964 2.75736C5.07119 3.88258 4.43904 5.4087 4.43904 7C4.43904 10.0902 3.65951 12.206 2.78871 13.6054C2.05417 14.7859 1.6869 15.3761 1.70037 15.5408C1.71528 15.7231 1.7539 15.7926 1.90082 15.9016C2.0335 16 2.63164 16 3.8279 16H17.0502C18.2465 16 18.8446 16 18.9773 15.9016C19.1242 15.7926 19.1628 15.7231 19.1777 15.5408C19.1912 15.3761 18.8239 14.7859 18.0894 13.6054C17.2186 12.206 16.439 10.0902 16.439 7Z" stroke="#121212" stroke-width="1.6" stroke-linecap="round" stroke-linejoin="round"/>
</svg>