<svg width="14" height="14" viewBox="0 0 14 14" fill="none" xmlns="http://www.w3.org/2000/svg">
  <path d="M4.56384 9.42441L1 12.9883M6.654 3.77045L5.67063 4.75381C5.59042 4.83402 5.55031 4.87413 5.50461 4.906C5.46405 4.93429 5.42031 4.9577 5.37427 4.97576C5.32241 4.9961 5.26679 5.00723 5.15555 5.02947L2.84692 5.4912C2.24697 5.61119 1.94699 5.67119 1.80665 5.82935C1.68439 5.96714 1.62856 6.15153 1.65385 6.334C1.68289 6.54345 1.89921 6.75976 2.33184 7.1924L6.79588 11.6564C7.22852 12.0891 7.44483 12.3054 7.65428 12.3344C7.83675 12.3597 8.02114 12.3039 8.15893 12.1816C8.3171 12.0413 8.37709 11.7413 8.49708 11.1414L8.95881 8.83273C8.98106 8.72149 8.99218 8.66587 9.01252 8.61401C9.03058 8.56798 9.05399 8.52423 9.08228 8.48367C9.11415 8.43797 9.15426 8.39786 9.23447 8.31765L10.2178 7.33429C10.2691 7.283 10.2948 7.25736 10.323 7.23497C10.348 7.21508 10.3745 7.19712 10.4023 7.18126C10.4335 7.16341 10.4669 7.14912 10.5335 7.12055L12.105 6.44707C12.5634 6.25059 12.7927 6.15235 12.8968 5.9936C12.9878 5.85477 13.0204 5.68562 12.9874 5.5229C12.9497 5.33684 12.7734 5.16049 12.4207 4.8078L9.18048 1.5676C8.82779 1.21491 8.65145 1.03856 8.46538 1.00084C8.30266 0.967858 8.13351 1.00043 7.99468 1.09149C7.83593 1.19562 7.73769 1.42484 7.54121 1.8833L6.86773 3.45475C6.83916 3.52142 6.82488 3.55475 6.80702 3.586C6.79116 3.61377 6.7732 3.64029 6.75331 3.66533C6.73092 3.69352 6.70528 3.71916 6.654 3.77045Z" stroke="#FF5570" stroke-opacity="0.65" stroke-width="1.5" stroke-linecap="round" stroke-linejoin="round"/>
</svg>
