<svg width="20" height="21" viewBox="0 0 20 21" fill="none" xmlns="http://www.w3.org/2000/svg">
  <path d="M8.60851 14.1711H3.35791" stroke="#FF5570" stroke-width="1.38158" stroke-linecap="round" stroke-linejoin="round"/>
  <path d="M10.9507 6.09398H16.2013" stroke="#FF5570" stroke-width="1.38158" stroke-linecap="round" stroke-linejoin="round"/>
  <path fill-rule="evenodd" clip-rule="evenodd" d="M7.27207 6.04896C7.27207 4.96925 6.39027 4.09375 5.30278 4.09375C4.2153 4.09375 3.3335 4.96925 3.3335 6.04896C3.3335 7.12867 4.2153 8.00417 5.30278 8.00417C6.39027 8.00417 7.27207 7.12867 7.27207 6.04896Z" stroke="#FF5570" stroke-width="1.38158" stroke-linecap="round" stroke-linejoin="round"/>
  <path fill-rule="evenodd" clip-rule="evenodd" d="M16.6666 14.1388C16.6666 13.0591 15.7855 12.1836 14.698 12.1836C13.6098 12.1836 12.728 13.0591 12.728 14.1388C12.728 15.2185 13.6098 16.094 14.698 16.094C15.7855 16.094 16.6666 15.2185 16.6666 14.1388Z" stroke="#FF5570" stroke-width="1.38158" stroke-linecap="round" stroke-linejoin="round"/>
</svg>
