<svg width="16" height="15" viewBox="0 0 16 15" fill="none" xmlns="http://www.w3.org/2000/svg">
  <path d="M13.2641 4.12215H11.3323C10.318 4.12215 9.81081 4.12215 9.42339 4.31955C9.08261 4.49319 8.80554 4.77025 8.6319 5.11103C8.4345 5.49845 8.4345 6.00561 8.4345 7.01993V7.74437M13.2641 4.12215L11.453 2.31104M13.2641 4.12215L11.453 5.93326M6.62339 2.31104H5.29524C4.28092 2.31104 3.77376 2.31104 3.38635 2.50843C3.04556 2.68207 2.7685 2.95914 2.59486 3.29992C2.39746 3.68734 2.39746 4.1945 2.39746 5.20882V10.2799C2.39746 11.2943 2.39746 11.8014 2.59486 12.1888C2.7685 12.5296 3.04556 12.8067 3.38635 12.9803C3.77376 13.1777 4.28092 13.1777 5.29524 13.1777H10.3664C11.3807 13.1777 11.8878 13.1777 12.2753 12.9803C12.616 12.8067 12.8931 12.5296 13.0667 12.1888C13.2641 11.8014 13.2641 11.2943 13.2641 10.2799V8.95178" stroke="white" stroke-width="1.26788" stroke-linecap="round" stroke-linejoin="round"/>
</svg>
