<svg xmlns="http://www.w3.org/2000/svg" width="25" height="23" viewBox="0 0 25 23" fill="none">
<mask id="mask0_2335_1983" style="mask-type:alpha" maskUnits="userSpaceOnUse" x="0" y="0" width="16" height="23">
<rect x="0.715576" width="14.335" height="22.387" fill="#D9D9D9"/>
</mask>
<g mask="url(#mask0_2335_1983)">
<path fill-rule="evenodd" clip-rule="evenodd" d="M15.0476 -0.00488281H2.09114C1.32982 -0.00488281 0.712646 0.61229 0.712646 1.37361V1.51438C0.88134 3.22046 1.00449 5.68571 1.05349 8.52861C2.00822 8.75226 2.73533 9.9024 2.73533 11.2876C2.73533 12.6729 2.00818 13.8231 1.05341 14.0467C1.00442 16.8835 0.881596 19.3439 0.71337 21.0487C0.737174 21.7892 1.34491 22.3821 2.09114 22.3821H15.0476V-0.00488281ZM42.7986 22.3821H53.9173C54.6537 22.3821 55.2553 21.8046 55.2938 21.0777C55.1247 19.3779 55.0011 16.9172 54.9514 14.0772C53.9106 13.9631 53.0916 12.7578 53.0916 11.2876C53.0916 9.81752 53.9105 8.61218 54.9514 8.49809C55.0011 5.64506 55.1256 3.17449 55.2958 1.47308V1.37361C55.2958 0.612288 54.6786 -0.00488281 53.9173 -0.00488281H42.7986V22.3821Z" fill="#FF5A61"/>
</g>
<mask id="mask1_2335_1983" style="mask-type:alpha" maskUnits="userSpaceOnUse" x="11" y="0" width="14" height="23">
<rect x="11.7886" width="12.4971" height="22.387" fill="#D9D9D9"/>
</mask>
<g mask="url(#mask1_2335_1983)">
<path fill-rule="evenodd" clip-rule="evenodd" d="M-15.9613 -0.00488281H-28.9169C-29.6782 -0.00488281 -30.2954 0.61229 -30.2954 1.37361V1.47524C-30.1247 3.18289 -30 5.66467 -29.9506 8.53C-28.9988 8.75698 -28.2747 9.90525 -28.2747 11.2876C-28.2747 12.6701 -28.9988 13.8183 -29.9507 14.0453C-30 16.8981 -30.1239 19.3704 -30.2935 21.0765C-30.2556 21.8039 -29.6538 22.3821 -28.9169 22.3821H-15.9613V-0.00488281ZM11.7897 22.3821H22.9092C23.6498 22.3821 24.254 21.7981 24.2864 21.0656C24.1179 19.3663 23.9947 16.9107 23.9452 14.0777C22.9021 13.9668 22.0806 12.76 22.0806 11.2876C22.0806 9.81528 22.902 8.60851 23.9451 8.49758C23.9947 5.65496 24.1185 3.19206 24.2877 1.49138V1.37361C24.2877 0.612288 23.6706 -0.00488281 22.9092 -0.00488281H11.7897V22.3821Z" fill="#FF5A61"/>
</g>
</svg>
